<svg xmlns="http://www.w3.org/2000/svg" xmlns:xlink="http://www.w3.org/1999/xlink" viewBox="0 0 187.26 66.82"><defs><style>.cls-1{fill:url(#Degradado_sin_nombre_12);}.cls-2{fill:url(#Degradado_sin_nombre_45);}.cls-3{fill:url(#Degradado_sin_nombre_30);}.cls-4{fill:url(#Degradado_sin_nombre_22);}.cls-5{fill:#1e1f1d;}.cls-6{fill:#fff;}.cls-7{fill:#b32337;}.cls-8{fill:#010202;}.cls-9{fill:#3b3c70;}</style><linearGradient id="Degradado_sin_nombre_12" x1="-18.9" y1="16.24" x2="21.95" y2="16.24" gradientTransform="matrix(-0.96, 0.27, 0.27, 0.96, 18.41, -2.6)" gradientUnits="userSpaceOnUse"><stop offset="0" stop-color="#814a96"/><stop offset="1" stop-color="#652680"/></linearGradient><linearGradient id="Degradado_sin_nombre_45" x1="-37.17" y1="32.41" x2="-17.46" y2="32.41" gradientTransform="matrix(-0.96, 0.27, 0.27, 0.96, 18.41, -2.6)" gradientUnits="userSpaceOnUse"><stop offset="0" stop-color="#e7511d"/><stop offset="1" stop-color="#ee732c"/></linearGradient><linearGradient id="Degradado_sin_nombre_30" x1="30.31" y1="53.18" x2="63.33" y2="53.18" gradientUnits="userSpaceOnUse"><stop offset="0" stop-color="#0780c3"/><stop offset="1" stop-color="#08519c"/></linearGradient><linearGradient id="Degradado_sin_nombre_22" x1="6.77" y1="45.52" x2="27.87" y2="45.52" gradientTransform="matrix(-0.96, 0.27, 0.27, 0.96, 18.41, -2.6)" gradientUnits="userSpaceOnUse"><stop offset="0" stop-color="#0caee0"/><stop offset="1" stop-color="#006fa6"/></linearGradient></defs><g id="Capa_2" data-name="Capa 2"><g id="Capa_1-2" data-name="Capa 1"><path class="cls-1" d="M8.09,15.82A34.2,34.2,0,0,1,11.81,11,33.76,33.76,0,0,1,27.46,1.31,34.16,34.16,0,0,1,38.83.06c.07,1.2-1.32,1.28-2.29,1.57-.15.05-.28.13-.44.2,1,1.22,1,1.93-.32,2.49-1,.42-2.05.66-3.08,1l.44.33c-.34.52-.55,1.31-1,1.53-1.68.77-3.44,1.35-5.6,2.16.51-.84.79-1.25,1-1.68C28.15,6.4,29,5,27.94,3.81s-2.65-.63-4-.11a2.67,2.67,0,0,0-.62.28,15.15,15.15,0,0,0-5.86,6.55,23.94,23.94,0,0,0-.92,3.8l.6.27c2.05-4.45,4.06-8.94,9.7-9.65a3,3,0,0,1-.57,1.78,20.86,20.86,0,0,0-3.9,9,29.5,29.5,0,0,1-.84,3.33C20.14,23.63,16.79,26,12.07,26c-2.67,0-5.35,0-8.3.08A33.81,33.81,0,0,1,8.09,15.82Z"/><path class="cls-2" d="M41.23,12.08c0-2.68-.12-5.37-.2-8.34l.06,0a34.14,34.14,0,0,1,14.66,7.73,33.66,33.66,0,0,1,9.84,15.78,34,34,0,0,1,1.26,11c-.73-.29-.84-1.38-1.09-2.18a3.48,3.48,0,0,0-.21-.44c-1.19,1-1.9,1-2.47-.28a32.08,32.08,0,0,1-1-3l-.32.44c-.52-.32-1.31-.52-1.53-1-.79-1.65-1.39-3.4-2.23-5.53.84.49,1.25.77,1.69,1,1.23.6,2.63,1.43,3.8.35s.59-2.64.05-4a2.88,2.88,0,0,0-.28-.62,15.07,15.07,0,0,0-6.59-5.71,22.78,22.78,0,0,0-3.78-.86l-.27.59c4.45,2,8.94,3.91,9.72,9.5a3.12,3.12,0,0,1-1.77-.54,20.59,20.59,0,0,0-9-3.74,31.83,31.83,0,0,1-3.31-.79A9.05,9.05,0,0,1,41.23,12.08Z"/><path class="cls-3" d="M32.35,65.79a4.5,4.5,0,0,0,.43-.23c-1.1-1.13-1.08-1.84.16-2.47a30.7,30.7,0,0,1,3-1.17l-.46-.3c.3-.54.46-1.33.91-1.57,1.6-.87,3.31-1.56,5.39-2.5-.45.86-.7,1.28-.89,1.73-.53,1.26-1.29,2.69-.15,3.8s2.65.46,4-.14a3.46,3.46,0,0,0,.6-.32,15,15,0,0,0,5.35-6.85A22.71,22.71,0,0,0,51.3,52l-.6-.24c-1.75,4.52-3.44,9.09-9,10.15a3.08,3.08,0,0,1,.45-1.79,20.39,20.39,0,0,0,3.27-9.17,29.12,29.12,0,0,1,.62-3.33A9,9,0,0,1,55,40.17c2.68-.14,5.35-.39,8.3-.62l.08.13A33.66,33.66,0,0,1,59.45,50a34.87,34.87,0,0,1-3.09,4.47,33.75,33.75,0,0,1-26,12.33C30.66,66.22,31.63,66.05,32.35,65.79Z"/><path class="cls-4" d="M0,28.72c1,.05,1.16,1.34,1.48,2.23a4.64,4.64,0,0,0,.23.44c1.17-1.1,1.89-1.07,2.52.2.48,1,.77,2,1.15,3.06l.3-.46c.55.31,1.35.48,1.6,1,.86,1.65,1.53,3.4,2.47,5.54-.88-.47-1.3-.74-1.76-.94-1.27-.56-2.73-1.35-3.88-.21s-.5,2.7.1,4a2.57,2.57,0,0,0,.31.62,15.34,15.34,0,0,0,6.91,5.58,23.61,23.61,0,0,0,3.87.73l.25-.61C11,48,6.33,46.24,5.33,40.59a3.07,3.07,0,0,1,1.82.48,20.91,20.91,0,0,0,9.32,3.48,30.35,30.35,0,0,1,3.39.68,9.19,9.19,0,0,1,7.43,9.18c.11,2.73.33,5.91.51,8.93-.16-.06-.23-.06-.48-.13A34.36,34.36,0,0,1,0,28.72Z"/><path class="cls-5" d="M10.47,37.05a.33.33,0,0,1-.14.29.61.61,0,0,1-.34.1.59.59,0,0,1-.34-.1.32.32,0,0,1-.15-.29V28.67H6.82a.27.27,0,0,1-.26-.15.64.64,0,0,1-.09-.34.67.67,0,0,1,.09-.34.26.26,0,0,1,.26-.16h6.34a.27.27,0,0,1,.26.16.67.67,0,0,1,.09.34.64.64,0,0,1-.09.34.28.28,0,0,1-.26.15H10.49v4.18C10.49,34.22,10.49,35.62,10.47,37.05Z"/><path class="cls-5" d="M17.48,34.11a3.47,3.47,0,0,1-.29,1.45,2.87,2.87,0,0,1-.75,1,3.13,3.13,0,0,1-1.05.63,3.46,3.46,0,0,1-1.18.21,3.35,3.35,0,0,1-1.62-.32,2.81,2.81,0,0,1-1.07-.87A2.93,2.93,0,0,1,11,35a3.51,3.51,0,0,1,.29-2.36,3.24,3.24,0,0,1,.63-.85,3,3,0,0,1,.92-.61A3.42,3.42,0,0,1,14,31a3.23,3.23,0,0,1,1.23.15,3.28,3.28,0,0,1,1.1.6,3.08,3.08,0,0,1,.81,1A3.18,3.18,0,0,1,17.48,34.11Zm-3.32,2.34a2.25,2.25,0,0,0,1-.21,2.22,2.22,0,0,0,.7-.54,2.49,2.49,0,0,0,.43-.76,2.82,2.82,0,0,0,.14-.86,2.09,2.09,0,0,0-.22-1,1.94,1.94,0,0,0-.54-.68A2.2,2.2,0,0,0,14.9,32a2.47,2.47,0,0,0-.85-.09,2,2,0,0,0-1.38.64A2.53,2.53,0,0,0,12,33.82a2.7,2.7,0,0,0,0,.94,2,2,0,0,0,1,1.46A2.41,2.41,0,0,0,14.16,36.45Z"/><path class="cls-5" d="M24,37a.33.33,0,0,1-.15.29.71.71,0,0,1-.35.1.64.64,0,0,1-.33-.1A.33.33,0,0,1,23,37v-.5a3,3,0,0,1-1.06.67,4,4,0,0,1-1.22.23,3.42,3.42,0,0,1-1.63-.32A2.86,2.86,0,0,1,18,36.25,2.93,2.93,0,0,1,17.46,35a3.51,3.51,0,0,1,.29-2.36,3.24,3.24,0,0,1,.63-.85,2.91,2.91,0,0,1,.91-.61A3.53,3.53,0,0,1,20.51,31a3.3,3.3,0,0,1,1.32.18,3.15,3.15,0,0,1,1.14.68V30c0-.62,0-1.25,0-1.88a.32.32,0,0,1,.15-.29.59.59,0,0,1,.34-.1.56.56,0,0,1,.33.1.32.32,0,0,1,.15.29Zm-3.31-.59a2.17,2.17,0,0,0,1.69-.75,2.27,2.27,0,0,0,.42-.76,2.55,2.55,0,0,0,.15-.86,2.22,2.22,0,0,0-.22-1,1.94,1.94,0,0,0-.54-.68,2.2,2.2,0,0,0-.76-.39,2.49,2.49,0,0,0-.85-.09,2,2,0,0,0-1.39.64,2.59,2.59,0,0,0-.62,1.25,2.7,2.7,0,0,0,0,.94,2.06,2.06,0,0,0,.33.84,2,2,0,0,0,.71.62A2.41,2.41,0,0,0,20.64,36.45Z"/><path class="cls-5" d="M29.15,31.05a.31.31,0,0,1,.3-.11.55.55,0,0,1,.31.14.62.62,0,0,1,.21.29.3.3,0,0,1-.07.32l-1,1.25-1,1.25,1,1.25,1,1.24A.3.3,0,0,1,30,37a.62.62,0,0,1-.21.29.55.55,0,0,1-.31.14.31.31,0,0,1-.3-.11l-2-2.37-1,1.19c-.33.4-.66.79-1,1.18a.31.31,0,0,1-.3.11.55.55,0,0,1-.32-.14A.53.53,0,0,1,24.4,37a.3.3,0,0,1,.07-.32l1-1.24,1.05-1.25L25.5,32.94l-1-1.25a.3.3,0,0,1-.07-.32.53.53,0,0,1,.19-.29.55.55,0,0,1,.32-.14.31.31,0,0,1,.3.11l2,2.37Z"/><path class="cls-5" d="M34.3,34.83a3.06,3.06,0,0,0-.71-.12l-.9,0c-.31,0-.63,0-.95-.07a3.7,3.7,0,0,1-.87-.21,1.8,1.8,0,0,1-.65-.43A1.2,1.2,0,0,1,30,33.2a1.81,1.81,0,0,1,.29-1,2.42,2.42,0,0,1,.91-.85,3.37,3.37,0,0,1,1.41-.41,3.85,3.85,0,0,1,1.52.17,3.57,3.57,0,0,1,1.29.72,2.39,2.39,0,0,1,.74,1.25H35a1.7,1.7,0,0,0-.6-.75,2.37,2.37,0,0,0-.9-.36,2.69,2.69,0,0,0-1,0,2.54,2.54,0,0,0-.9.33,1.18,1.18,0,0,0-.38.39.6.6,0,0,0,0,.54.63.63,0,0,0,.51.35,6.16,6.16,0,0,0,1,.1l1.16.06A5,5,0,0,1,35,34a1.54,1.54,0,0,1,.79.54,1.1,1.1,0,0,1,.22.85,1.91,1.91,0,0,1-.56,1.12,3.14,3.14,0,0,1-1.15.71,4.53,4.53,0,0,1-1.43.26,3.8,3.8,0,0,1-1.41-.19,2.59,2.59,0,0,1-1.11-.71,1.83,1.83,0,0,1-.48-1.22h1.16a1.2,1.2,0,0,0,.61.81,2.55,2.55,0,0,0,1.08.29,2.64,2.64,0,0,0,1.14-.2,1.51,1.51,0,0,0,.79-.64.46.46,0,0,0,0-.47A.73.73,0,0,0,34.3,34.83Z"/><path class="cls-5" d="M36.83,33.28h.74v.28h-1v-2.7h.3Z"/><path class="cls-5" d="M40.51,32.21a1.41,1.41,0,0,1-2.81,0,1.41,1.41,0,0,1,2.81,0Zm-2.51,0a1.11,1.11,0,1,0,1.11-1.12A1.12,1.12,0,0,0,38,32.21Z"/><path class="cls-5" d="M42.11,31.39a.5.5,0,0,0-.47-.3.42.42,0,0,0-.44.42c0,.23.24.34.42.42l.18.08c.35.16.64.33.64.76a.83.83,0,0,1-.84.83.82.82,0,0,1-.84-.69l.29-.09a.56.56,0,0,0,.54.51.54.54,0,0,0,.55-.53c0-.32-.24-.42-.49-.54l-.17-.07c-.31-.14-.58-.3-.58-.69a.71.71,0,0,1,.75-.69.8.8,0,0,1,.7.42Z"/><path class="cls-5" d="M44.22,33.28H45v.28h-1v-2.7h.3Z"/><path class="cls-5" d="M45.51,32.47a1,1,0,0,0,.12.6.71.71,0,0,0,1.08,0,1,1,0,0,0,.13-.62V30.86h.3v1.69a1,1,0,0,1-.24.75,1,1,0,0,1-.72.3,1,1,0,0,1-.7-.27,1,1,0,0,1-.27-.78V30.86h.3Z"/><path class="cls-5" d="M50.14,32.2a1.28,1.28,0,0,1-.27.95,1.34,1.34,0,0,1-1,.45,1.4,1.4,0,1,1,0-2.79A1.41,1.41,0,0,1,50,31.4l-.22.2a1.1,1.1,0,0,0-.93-.51,1.12,1.12,0,0,0-1.1,1.13,1.07,1.07,0,0,0,.31.76,1.15,1.15,0,0,0,.77.35.93.93,0,0,0,1-.85H49V32.2Z"/><path class="cls-5" d="M50.94,32.79l-.33.77h-.33l1.25-2.83,1.21,2.83h-.33l-.32-.77Zm.58-1.36-.46,1.08H52Z"/><path class="cls-5" d="M53.3,33.56H53v-2.7h.39c.51,0,1,.14,1,.74a.71.71,0,0,1-.68.75l.86,1.21h-.37l-.81-1.19H53.3Zm0-1.45h.09c.34,0,.69-.07.69-.48s-.33-.49-.69-.49H53.3Z"/><path class="cls-5" d="M54.9,30.86h1.4v.28H55.2v.8h1.07v.28H55.2v1.06h1.1v.28H54.9Z"/><path class="cls-5" d="M58,31.39a.48.48,0,0,0-.46-.3.43.43,0,0,0-.45.42c0,.23.24.34.42.42l.18.08c.35.16.65.33.65.76a.85.85,0,0,1-1.69.14l.29-.09a.56.56,0,0,0,.54.51A.55.55,0,0,0,58,32.8c0-.32-.25-.42-.5-.54l-.16-.07c-.32-.14-.59-.3-.59-.69a.71.71,0,0,1,.75-.69.78.78,0,0,1,.7.42Z"/><path class="cls-5" d="M36.87,37.06h.74v.27h-1V34.64h.31Z"/><path class="cls-5" d="M38.27,36.57l-.32.76h-.33l1.25-2.82,1.21,2.82h-.34l-.31-.76Zm.59-1.36-.46,1.08h.91Z"/><path class="cls-5" d="M41.56,35.16a.51.51,0,0,0-.47-.29.42.42,0,0,0-.44.42c0,.23.24.34.42.42l.18.08c.35.15.65.33.65.76a.85.85,0,0,1-1.69.13l.29-.08a.55.55,0,0,0,.54.5.54.54,0,0,0,.56-.52c0-.32-.25-.43-.5-.54L40.93,36c-.31-.15-.58-.31-.58-.69a.71.71,0,0,1,.75-.69.77.77,0,0,1,.7.42Z"/><path class="cls-5" d="M43.67,37.33h-.3V34.64h.44a1.12,1.12,0,0,1,.67.14A.78.78,0,0,1,44.53,36a.94.94,0,0,1-.64.18h-.22Zm0-1.46h.2c.33,0,.61-.1.61-.48s-.35-.47-.7-.47h-.11Z"/><path class="cls-5" d="M45.13,34.64h1.4v.28h-1.1v.8H46.5V36H45.43v1.06h1.1v.27h-1.4Z"/><path class="cls-5" d="M47.31,37.33H47V34.64h.39c.51,0,1,.13,1,.74a.71.71,0,0,1-.67.75l.86,1.2H48.2l-.82-1.18h-.07Zm0-1.44h.09c.34,0,.68-.07.68-.49s-.32-.48-.68-.48h-.09Z"/><path class="cls-5" d="M50.13,35.16a.49.49,0,0,0-.46-.29.43.43,0,0,0-.45.42c0,.23.24.34.42.42l.18.08c.35.15.65.33.65.76a.85.85,0,0,1-1.69.13l.29-.08a.55.55,0,0,0,.54.5.54.54,0,0,0,.56-.52c0-.32-.25-.43-.5-.54L49.51,36c-.32-.15-.59-.31-.59-.69a.71.71,0,0,1,.75-.69.76.76,0,0,1,.7.42Z"/><path class="cls-5" d="M53.55,36a1.41,1.41,0,1,1-1.41-1.4A1.41,1.41,0,0,1,53.55,36ZM51,36a1.11,1.11,0,1,0,1.1-1.12A1.11,1.11,0,0,0,51,36Z"/><path class="cls-5" d="M53.94,34.52,56,36.73V34.64h.3v2.82l-2.1-2.2v2.07h-.3Z"/><path class="cls-5" d="M57.28,36.57l-.33.76h-.33l1.25-2.82,1.21,2.82h-.33l-.32-.76Zm.58-1.36-.46,1.08h.91Z"/><path class="cls-5" d="M60.56,35.16a.51.51,0,0,0-.47-.29.42.42,0,0,0-.44.42c0,.23.24.34.42.42l.18.08c.35.15.65.33.65.76a.85.85,0,0,1-1.69.13l.29-.08a.55.55,0,0,0,.54.5.54.54,0,0,0,.56-.52c0-.32-.25-.43-.5-.54L59.93,36c-.31-.15-.58-.31-.58-.69a.71.71,0,0,1,.75-.69.77.77,0,0,1,.7.42Z"/><polygon class="cls-6" points="106.98 13.63 107.66 15.71 105.89 14.43 108.08 14.43 106.31 15.71 106.98 13.63"/><polygon class="cls-6" points="111.84 13.3 112.71 15.9 110.48 14.31 113.22 14.28 111.02 15.91 111.84 13.3"/><polygon class="cls-6" points="97.48 14.57 98.36 17.18 96.12 15.59 98.87 15.56 96.66 17.19 97.48 14.57"/><polygon class="cls-6" points="103.43 14.52 104.3 17.13 102.06 15.53 104.81 15.51 102.6 17.14 103.43 14.52"/><polygon class="cls-6" points="109.37 14.47 110.24 17.07 108 15.48 110.75 15.46 108.54 17.09 109.37 14.47"/><polygon class="cls-6" points="115.31 14.42 116.18 17.02 113.94 15.43 116.69 15.41 114.48 17.04 115.31 14.42"/><rect class="cls-7" x="92.86" y="8.17" width="94.18" height="49.57" transform="translate(-0.28 1.21) rotate(-0.49)"/><path class="cls-8" d="M92.7,14.3l94.18-.82m.06,7.63-94.18.81m.07,7.63L187,28.74m.06,7.62-94.17.81M93,44.8,187.14,44m.07,7.62L93,52.43"/><path class="cls-6" d="M187.22,53.52,93,54.33l0-3.81,94.18-.81Zm-.06-7.63L93,46.71l0-3.81,94.17-.82Zm-.07-7.62-94.18.81,0-3.81,94.18-.81ZM187,30.64l-94.18.82,0-3.82L187,26.83ZM187,23l-94.18.81,0-3.81,94.18-.82Zm-.07-7.63-94.18.81,0-3.81,94.18-.81Z"/><rect class="cls-9" x="92.76" y="8.41" width="37.67" height="26.69" transform="translate(-0.18 0.96) rotate(-0.49)"/><polygon class="cls-6" points="95.8 9.7 96.72 12.45 94.36 10.76 97.26 10.74 94.93 12.46 95.8 9.7"/><polygon class="cls-6" points="95.84 15.03 96.77 17.78 94.4 16.1 97.31 16.07 94.97 17.8 95.84 15.03"/><polygon class="cls-6" points="95.89 20.37 96.81 23.12 94.45 21.44 97.35 21.41 95.02 23.14 95.89 20.37"/><polygon class="cls-6" points="95.94 25.71 96.86 28.46 94.5 26.78 97.4 26.75 95.06 28.48 95.94 25.71"/><polygon class="cls-6" points="95.98 31.05 96.9 33.8 94.54 32.11 97.44 32.09 95.11 33.81 95.98 31.05"/><polygon class="cls-6" points="98.96 12.34 99.88 15.09 97.52 13.4 100.42 13.38 98.09 15.1 98.96 12.34"/><polygon class="cls-6" points="99.01 17.68 99.93 20.43 97.56 18.74 100.47 18.72 98.13 20.44 99.01 17.68"/><polygon class="cls-6" points="99.05 23.01 99.97 25.76 97.61 24.08 100.51 24.05 98.18 25.78 99.05 23.01"/><polygon class="cls-6" points="99.1 28.35 100.02 31.1 97.66 29.42 100.56 29.39 98.23 31.12 99.1 28.35"/><polygon class="cls-6" points="102.08 9.64 103 12.39 100.64 10.71 103.54 10.68 101.2 12.41 102.08 9.64"/><polygon class="cls-6" points="102.12 14.98 103.04 17.73 100.68 16.05 103.58 16.02 101.25 17.75 102.12 14.98"/><polygon class="cls-6" points="102.17 20.32 103.09 23.07 100.73 21.38 103.63 21.36 101.3 23.08 102.17 20.32"/><polygon class="cls-6" points="102.22 25.66 103.14 28.41 100.77 26.72 103.67 26.7 101.34 28.42 102.22 25.66"/><polygon class="cls-6" points="102.26 30.99 103.18 33.74 100.82 32.06 103.72 32.03 101.39 33.76 102.26 30.99"/><polygon class="cls-6" points="105.24 12.28 106.16 15.03 103.8 13.35 106.7 13.32 104.37 15.05 105.24 12.28"/><polygon class="cls-6" points="105.28 17.62 106.21 20.37 103.84 18.69 106.75 18.66 104.41 20.39 105.28 17.62"/><polygon class="cls-6" points="105.33 22.96 106.25 25.71 103.89 24.02 106.79 24 104.46 25.73 105.33 22.96"/><polygon class="cls-6" points="105.38 28.3 106.3 31.05 103.94 29.36 106.84 29.34 104.51 31.06 105.38 28.3"/><polygon class="cls-6" points="108.36 9.59 109.28 12.34 106.92 10.65 109.82 10.63 107.48 12.35 108.36 9.59"/><polygon class="cls-6" points="108.4 14.92 109.32 17.68 106.96 15.99 109.86 15.97 107.53 17.69 108.4 14.92"/><polygon class="cls-6" points="108.45 20.26 109.37 23.01 107.01 21.33 109.91 21.3 107.58 23.03 108.45 20.26"/><polygon class="cls-6" points="108.49 25.6 109.42 28.35 107.05 26.67 109.95 26.64 107.62 28.37 108.49 25.6"/><polygon class="cls-6" points="108.54 30.94 109.46 33.69 107.1 32 110 31.98 107.67 33.7 108.54 30.94"/><polygon class="cls-6" points="111.52 12.23 112.44 14.98 110.08 13.29 112.98 13.27 110.65 14.99 111.52 12.23"/><polygon class="cls-6" points="111.56 17.57 112.48 20.32 110.12 18.63 113.03 18.61 110.69 20.33 111.56 17.57"/><polygon class="cls-6" points="111.61 22.91 112.53 25.66 110.17 23.97 113.07 23.95 110.74 25.67 111.61 22.91"/><polygon class="cls-6" points="111.66 28.24 112.58 30.99 110.22 29.31 113.12 29.28 110.78 31.01 111.66 28.24"/><polygon class="cls-6" points="114.64 9.53 115.56 12.28 113.19 10.6 116.09 10.57 113.76 12.3 114.64 9.53"/><polygon class="cls-6" points="114.68 14.87 115.6 17.62 113.24 15.94 116.14 15.91 113.81 17.64 114.68 14.87"/><polygon class="cls-6" points="114.73 20.21 115.65 22.96 113.28 21.27 116.19 21.25 113.85 22.97 114.73 20.21"/><polygon class="cls-6" points="114.77 25.55 115.69 28.3 113.33 26.61 116.23 26.59 113.9 28.31 114.77 25.55"/><polygon class="cls-6" points="114.82 30.89 115.74 33.63 113.38 31.95 116.28 31.93 113.95 33.65 114.82 30.89"/><polygon class="cls-6" points="117.8 12.17 118.72 14.93 116.36 13.24 119.26 13.22 116.92 14.94 117.8 12.17"/><polygon class="cls-6" points="117.84 17.51 118.76 20.26 116.4 18.58 119.3 18.55 116.97 20.28 117.84 17.51"/><polygon class="cls-6" points="117.89 22.85 118.81 25.6 116.45 23.92 119.35 23.89 117.02 25.62 117.89 22.85"/><polygon class="cls-6" points="117.94 28.19 118.86 30.94 116.49 29.25 119.39 29.23 117.06 30.95 117.94 28.19"/><polygon class="cls-6" points="120.91 9.48 121.83 12.23 119.47 10.54 122.37 10.52 120.04 12.24 120.91 9.48"/><polygon class="cls-6" points="120.96 14.82 121.88 17.57 119.52 15.88 122.42 15.86 120.09 17.58 120.96 14.82"/><polygon class="cls-6" points="121 20.15 121.93 22.91 119.56 21.22 122.47 21.2 120.13 22.92 121 20.15"/><polygon class="cls-6" points="121.05 25.49 121.97 28.24 119.61 26.56 122.51 26.53 120.18 28.26 121.05 25.49"/><polygon class="cls-6" points="121.1 30.83 122.02 33.58 119.66 31.9 122.56 31.87 120.22 33.6 121.1 30.83"/><polygon class="cls-6" points="124.08 12.12 125 14.87 122.63 13.19 125.54 13.16 123.2 14.89 124.08 12.12"/><polygon class="cls-6" points="124.12 17.46 125.04 20.21 122.68 18.52 125.58 18.5 123.25 20.22 124.12 17.46"/><polygon class="cls-6" points="124.17 22.8 125.09 25.55 122.73 23.86 125.63 23.84 123.3 25.56 124.17 22.8"/><polygon class="cls-6" points="124.21 28.13 125.13 30.89 122.77 29.2 125.67 29.18 123.34 30.9 124.21 28.13"/><polygon class="cls-6" points="127.19 9.42 128.11 12.17 125.75 10.49 128.65 10.46 126.32 12.19 127.19 9.42"/><polygon class="cls-6" points="127.24 14.76 128.16 17.51 125.8 15.83 128.7 15.8 126.36 17.53 127.24 14.76"/><polygon class="cls-6" points="127.28 20.1 128.21 22.85 125.84 21.17 128.74 21.14 126.41 22.87 127.28 20.1"/><polygon class="cls-6" points="127.33 25.44 128.25 28.19 125.89 26.5 128.79 26.48 126.46 28.2 127.33 25.44"/><polygon class="cls-6" points="127.38 30.78 128.3 33.53 125.93 31.84 128.84 31.82 126.5 33.54 127.38 30.78"/></g></g></svg>