<svg xmlns="http://www.w3.org/2000/svg" viewBox="0 0 46.78 47.46"><defs><style>.cls-1{fill:#528ac4;}</style></defs><g id="Capa_2" data-name="Capa 2"><g id="Capa_1-2" data-name="Capa 1"><g id="key"><path class="cls-1" d="M26.92,14.05a10.74,10.74,0,0,1,.81-1.49c.16-.22.32-.38.48-.61A.45.45,0,0,0,28,12c-.16.11-.22.29-.34.39s-.27.42-.43.51a1,1,0,0,0-.27.3,1.07,1.07,0,0,0-.16.36c0,.07-.06,0-.18.16a2,2,0,0,0-.27.65c0,.07-.16.12-.25.27a2.64,2.64,0,0,0-.24.75,2.27,2.27,0,0,0-.23.34,1.34,1.34,0,0,0-.16.45c0,.16-.11.18-.2.43a2.57,2.57,0,0,0-.09.61,1.91,1.91,0,0,1-.16.27,2,2,0,0,0-.16.61,2.14,2.14,0,0,0-.2.57,2,2,0,0,0,0,.7,3.81,3.81,0,0,0-.1,1.17,4,4,0,0,1,.05.59c-.05.59-.07,1.08-.07,1.76a8,8,0,0,0,.09,1.29c.07.45.16.81.16.81h1.51a15.14,15.14,0,0,1,0-1.78,8.9,8.9,0,0,1,.29-1.54,14.66,14.66,0,0,1,.52-1.49s0-.09-.07,0a1.64,1.64,0,0,0-.4.43c-.16.27-.32.54-.46.81s-.27.63-.47,1.06a3.54,3.54,0,0,1,.09-.86,5.75,5.75,0,0,1,.77-1.94,3.05,3.05,0,0,1,.52-.61l.68-.59c-.25-.13-.59.14-.66.16-.36.07-.5.41-.61.43a.94.94,0,0,0-.34.29c-.09.09-.11.25-.2.3a1,1,0,0,0-.34.41c-.05.06-.16.45-.27.4A8.64,8.64,0,0,1,26.69,17a6.66,6.66,0,0,1,1.65-1.74c.09-.06.12-.09,0-.09-.68.09-.7.39-.81.41a1,1,0,0,0-.32.23c-.16.16-.13.27-.2.31a.92.92,0,0,0-.3.32c0,.07-.11.25-.18.29a1.12,1.12,0,0,0-.43.41c0,.11-.11.25-.15.36a2.27,2.27,0,0,1-.32.3,9.53,9.53,0,0,1,.5-1.7A17.56,17.56,0,0,1,26.92,14.05Z"/><path class="cls-1" d="M28.46,18.37A18.11,18.11,0,0,1,30.4,15c.09-.15.2-.29.27-.43l.27-.4c.25-.41.36-.52.63-.91a.69.69,0,0,0,.16-.29c.05-.23-.13-.36-.18-.59a.94.94,0,0,1,.09-.63,1.11,1.11,0,0,0,.18-.32c.12-.29.07-.92.23-.95a2.9,2.9,0,0,0,0,.93c0,.34.27.54.34.9a2.57,2.57,0,0,1,.68,0,1.5,1.5,0,0,0,.63-.11,7.73,7.73,0,0,1,.77-.32,4.94,4.94,0,0,1-.84.48.74.74,0,0,0-.25.25A.89.89,0,0,1,33,13a3.86,3.86,0,0,1-.93.14,11,11,0,0,0-1.44,2,25.59,25.59,0,0,0-2.65,6c.21-.36.37-.7.59-1A12.18,12.18,0,0,1,29.36,19c.66-.86,1.31-1.63,2-2.42a9.28,9.28,0,0,1,2-1.63,4.55,4.55,0,0,1,3.14-.79.93.93,0,0,1,.36.14,4.34,4.34,0,0,0-3.3,1A11.54,11.54,0,0,0,31.71,17c-.29.34-.56.73-.84,1.09a9.76,9.76,0,0,0-.76,1.2,18.52,18.52,0,0,0-1.92,4.34.21.21,0,0,0,0,.13.3.3,0,0,0,.07-.11A9.09,9.09,0,0,1,30.56,21a.67.67,0,0,0,.2-.25c.11-.4-.2-.58.23-1.15.09-.13.22-.18.31-.29.18-.27.32-.75.46-.88a9.16,9.16,0,0,0-.3,1,6.77,6.77,0,0,0,.07,1,3.79,3.79,0,0,1,.65.21,1.78,1.78,0,0,0,.8,0,2,2,0,0,1,.49-.07c-.29.16-.7.14-1,.28s-.27.27-.57.31a1,1,0,0,1-.65-.07.37.37,0,0,0-.34,0,2.57,2.57,0,0,0-.77.61,8.5,8.5,0,0,0-1.51,2.1,6.94,6.94,0,0,0-.32.68c0,.11-.18.43-.18.43H26.63v-.61a5.19,5.19,0,0,1,.13-.88c.09-.48.18-.88.3-1.34a10.59,10.59,0,0,1,.4-1.28C27.76,20,28.1,19.18,28.46,18.37Z"/><path class="cls-1" d="M13.7,30.26a10.77,10.77,0,0,1,1.52-1,5.83,5.83,0,0,1,.83-.41A9.11,9.11,0,0,1,19.49,28h9a1.15,1.15,0,0,1,.75.27,1.22,1.22,0,0,1,.31.68,1.67,1.67,0,0,1,0,.63,1.14,1.14,0,0,1-.18.46,1.05,1.05,0,0,1-.23.24.86.86,0,0,1-.47.14H18a15.91,15.91,0,0,0-2.08.13,15.49,15.49,0,0,0-1.54.28,17.52,17.52,0,0,0-1.85.63A5.37,5.37,0,0,1,13.7,30.26Z"/><path class="cls-1" d="M16.82,26.69a8.67,8.67,0,0,1,1.81-1c.34-.12.68-.23,1-.32a7,7,0,0,1,1.18-.18h7.7a1.22,1.22,0,0,1,.23,0,1.59,1.59,0,0,1,.32.12,1.3,1.3,0,0,1,.34.36,1.62,1.62,0,0,1,.18,1.06c-.07.43-.39.9-.84.9H20.21l-.7,0a10.05,10.05,0,0,0-1.22.11c-.3,0-.61.11-.91.18a19.35,19.35,0,0,0-2.84,1.2A7.89,7.89,0,0,1,16.82,26.69Z"/><path class="cls-1" d="M12.53,31.91a9.21,9.21,0,0,1,4.4-1.16H28.66c.7,0,.95.7.95,1.25a1.25,1.25,0,0,1-.09.49,1.67,1.67,0,0,1-.25.43.75.75,0,0,1-.27.18.85.85,0,0,1-.36,0H20.1l-.77-.05a5.47,5.47,0,0,1-.66-.09,14.34,14.34,0,0,1-1.58-.47A6.29,6.29,0,0,0,16,32.27a8,8,0,0,0-2.13-.09,10.16,10.16,0,0,0-2.5.49A5,5,0,0,1,12.53,31.91Z"/><path class="cls-1" d="M18.72,35.5A5.59,5.59,0,0,1,17.59,35a7.15,7.15,0,0,0-1.24-.8,15,15,0,0,0-1.59-.7,10,10,0,0,0-1.33-.36c-.65-.11-1.31-.16-1.31-.16a1.2,1.2,0,0,1,.23-.11,8.48,8.48,0,0,1,2-.36,6.87,6.87,0,0,1,1.76.11,5.69,5.69,0,0,1,.86.21,11.09,11.09,0,0,0,2.9.67h8.6a1.1,1.1,0,0,1,.93.43,1.55,1.55,0,0,1,.11,1.34,1.1,1.1,0,0,1-.29.47.88.88,0,0,1-.43.18H21.16A8.12,8.12,0,0,1,18.72,35.5Z"/><path class="cls-1" d="M22.11,38.16c-.21-.22-.5-.54-.77-.85a4.43,4.43,0,0,1-.72-1.16h5a7.56,7.56,0,0,1-.12,1.25,6,6,0,0,1-.58,1.74c0,.47.2.92.22,1.4a7.7,7.7,0,0,0-1.22.86s-.07,0-.07,0c-.2-.75-.29-1.4-.45-2.12A10.64,10.64,0,0,1,22.11,38.16Z"/><path class="cls-1" d="M27.26,37.76a7,7,0,0,0-.41-.82c0,.18,0,.3,0,.48s-.14.09-.16,0-.13-.45-.2-.65a3.67,3.67,0,0,1-.14-.64h.84s0,0,0,.09,0,.41.09.66a6.1,6.1,0,0,0,.3.88c.09.25.22.52.34.77a.15.15,0,0,1,0,.13s-.07,0-.09,0l0,0A3,3,0,0,1,27.26,37.76Z"/><path class="cls-1" d="M28.52,38.35a2.3,2.3,0,0,1-.31-1c.09.12.13.21.25.27s.18,0,.15-.09-.13-.33-.22-.61l-.23-.79h-.83a3.52,3.52,0,0,0,.25.88,8.61,8.61,0,0,0,.72,1.5,6.87,6.87,0,0,0,.7,1.08c.09.09.32,0,.22-.14A6.11,6.11,0,0,1,28.52,38.35Z"/><path class="cls-1" d="M34,9.78a.83.83,0,0,0-.43.37c-.07.13-.12.31,0,.42s.5,0,.59-.2a1.58,1.58,0,0,0,.09-.72Z"/><path class="cls-1" d="M34.2,11a1.16,1.16,0,0,1,.45-.43l.59-.36a.78.78,0,0,0,.18-.16l-.21.09c-.38.23-.81.5-1,.57a3,3,0,0,1-.77.15,5.26,5.26,0,0,1-.13-.76,1.47,1.47,0,0,1,.07-.46A3.57,3.57,0,0,0,33.5,9a.34.34,0,0,0-.09.25c0,.18,0,.22-.1.43a1.19,1.19,0,0,1-.22.58c-.2.21-.39.59-.23.86s.25.14.3.18a.32.32,0,0,0,.22.18C33.7,11.55,34,11.25,34.2,11Z"/><path class="cls-1" d="M33.81,11.84a1,1,0,0,1,.39-.38c.27-.16.47-.28.65-.37a.26.26,0,0,0,.16-.15,5.27,5.27,0,0,0-.63.31,1.62,1.62,0,0,1-.77.27.9.9,0,0,1-.23,0,2.17,2.17,0,0,0-.36,0,3.18,3.18,0,0,0-.11-.38,1,1,0,0,1-.11-.32,1.27,1.27,0,0,1,0-.34,7.43,7.43,0,0,0,.09-.81c-.18.36-.09.81-.31,1.09a1.85,1.85,0,0,0-.23.36.74.74,0,0,0,0,.72c.09.14.27.14.31.16s.09.18.27.22A.85.85,0,0,0,33.81,11.84Z"/><path class="cls-1" d="M33.9,18.89c.07-.16.14-.34.23-.5-.23,0-.25.05-.57.09a1,1,0,0,0-.25.12.46.46,0,0,0-.18.45.28.28,0,0,0,.14.16A.55.55,0,0,0,33.9,18.89Z"/><path class="cls-1" d="M34.15,19.3a2.32,2.32,0,0,1,.77-.16,4.79,4.79,0,0,1-.93.29,1.87,1.87,0,0,0-.61.41.62.62,0,0,1-.68.09.33.33,0,0,1-.15-.23s-.12-.11-.18-.15a.39.39,0,0,1-.09-.21c0-.4.29-.59.61-.81s.52-1,.7-1.11a11.64,11.64,0,0,1-.5,1.09,5.72,5.72,0,0,0-.14.81c.21,0,.46.07.68.07Z"/><path class="cls-1" d="M33.86,19.91c-.16,0-.36.09-.5.11-.47.09-.7-.14-1.11-.14,0-.45-.11-.63,0-.92s.23-.52.32-.75a.8.8,0,0,0,.09-.31s-.11.18-.45.81c-.12.23-.32.27-.5.5s-.34.76.07,1c.09,0,.07.18.13.22A.87.87,0,0,0,33,20.34a2,2,0,0,1,.86-.37.92.92,0,0,0,.29-.11A2,2,0,0,0,33.86,19.91Z"/><path class="cls-1" d="M24.68,16.61A9.6,9.6,0,0,0,25,15.05a3.14,3.14,0,0,0-.63-2.26c0,.27.11.5.15.77a3.06,3.06,0,0,1-.09,1,4.53,4.53,0,0,1-.29.74,5,5,0,0,1-.54.84c-.57.7-1.43,2.05-1.43,2.05h-.11a5,5,0,0,1,.59-1.08c.45-.7.77-1.08,1.17-1.72a3.62,3.62,0,0,0,.5-1.29,2.32,2.32,0,0,0-1-2.25,2.55,2.55,0,0,1-.2,2,8.63,8.63,0,0,0-1.51,2.22s-.12-.14-.21-.19,0-.27-.09-.4a.61.61,0,0,0-.11-.23c-.13-.18-.27-.18-.29-.22a1.18,1.18,0,0,0-.14-.37c-.07-.09-.22-.13-.27-.22s-.09-.34-.29-.45-.14-.21-.23-.27a.87.87,0,0,0-.59-.21,1,1,0,0,0-.43-.22c-.22,0-.36.11-.47.06a.67.67,0,0,0-.9.21c-.09.11-.28,0-.48.16s-.18.27-.27.27a.53.53,0,0,0-.36.31,1.56,1.56,0,0,0-.09.34,1.59,1.59,0,0,0-.09.39c0,.15,0,.22,0,.29s-.09.18-.11.27a.5.5,0,0,0,0,.27c0,.09,0,.18-.07.27a1.1,1.1,0,0,0-.07.36c0,.16.12.21.05.34a.8.8,0,0,0,0,.89c0,.06-.09.2-.11.4a1.08,1.08,0,0,0,.15.48s-.06,0-.06.06a21,21,0,0,0-1.79-1.74A7.65,7.65,0,0,0,13,16.09a6.87,6.87,0,0,0-3.95-.95c.5.38,1.11.68,1.6,1.13s.91.79,1.34,1.24a19.61,19.61,0,0,1,1.8,2.26c.19.25.28.41.46.68a6.56,6.56,0,0,1,.47.79c.75,1.29,1.33,2.46,1.94,3.77.18.37.32.75.48,1.11,0,.09.11,0,.16,0,.22-.13.45-.23.67-.34s.37-.13.52-.2a10.47,10.47,0,0,1,1.25-.34,11.3,11.3,0,0,1,2-.11H24.3c0-.7-.2-1.38-.23-2.1s0-1.13,0-1.7A23.44,23.44,0,0,1,24.68,16.61Zm-2.87,1.22c.05.13.12.22.05.38s-.23.18-.39.25-.38.11-.49,0-.18-.43,0-.54S21.7,17.51,21.81,17.83Zm-1.76,2.82c-.16.18-.43.18-.7.25a.24.24,0,0,1-.27-.16c-.09-.18-.2-.4,0-.58s.36-.14.56-.19a.39.39,0,0,1,.3,0,.48.48,0,0,1,.16.61Zm.34.68a.4.4,0,0,1-.18.5c-.25.09-.59.22-.77.09s-.34-.59-.07-.75.88-.36,1,.16Zm-3.12-5.74c.07-.18.3-.18.48-.16a.34.34,0,0,1,.22.36s0,.05,0,.07-.36.14-.54.12S17.2,15.73,17.27,15.59Zm0-.63c0-.05,0-.07.09-.09a.51.51,0,0,1,.45,0,.19.19,0,0,1,0,.29,0,0,0,0,1,0,0,.44.44,0,0,1-.5.05A.23.23,0,0,1,17.23,15Zm1.44.31a.69.69,0,0,1-.61.07.29.29,0,0,1-.07-.4.57.57,0,0,1,.64-.16.29.29,0,0,1,.13.4Zm.23.3a.36.36,0,0,1,.09.5.65.65,0,0,1-.81.13c-.14-.09-.21-.5.06-.59A.7.7,0,0,1,18.9,15.57Zm-1.54.65c.21-.09.61-.15.68.14s-.38.47-.63.41-.23-.48-.05-.55Zm0,.91A.68.68,0,0,1,18,17c.14,0,.2.2.2.4a.24.24,0,0,1-.13.21,1.28,1.28,0,0,1-.54.09.33.33,0,0,1-.25-.41s0-.07,0-.11Zm.11.83a.88.88,0,0,1,.7-.15c.14,0,.21.15.23.31,0,.43-.52.5-.79.41a.4.4,0,0,1-.14-.54v0Zm.84-1.08c-.14-.43.41-.59.72-.5a.37.37,0,0,1,.09.61c-.25.16-.7.21-.81-.11Zm2.21.5c-.13.22-.54.24-.72.22s-.23-.22-.23-.4a.22.22,0,0,1,.09-.19,1.11,1.11,0,0,1,.66-.15.36.36,0,0,1,.25.45s-.05,0-.05.07Zm.12.45a.41.41,0,0,1,0,.47.83.83,0,0,1-.7.18c-.11,0-.16-.15-.18-.25a.28.28,0,0,1,.07-.33.69.69,0,0,1,.56-.14.2.2,0,0,1,.23.07Zm-.32-1.34c-.14.23-.72.37-.86.14s-.16-.38,0-.5A.88.88,0,0,1,20.1,16a.35.35,0,0,1,.2.49s0,0,0,0Zm-.41-.74a1,1,0,0,1-.34.16.33.33,0,0,1-.4-.23v0c0-.32.29-.37.52-.41a.26.26,0,0,1,.29.2.36.36,0,0,1-.07.32ZM18.54,17.4c.25-.14.77-.32.88.07,0,.15,0,.36-.09.43a.75.75,0,0,1-.75.06.35.35,0,0,1,0-.56Zm.2.9c.25-.18.75-.29.88.09a.32.32,0,0,1,0,.3.76.76,0,0,1-.72.25.38.38,0,0,1-.25-.48.22.22,0,0,1,.09-.16Zm.2.91a.78.78,0,0,1,.75-.09.43.43,0,0,1,.14.45.78.78,0,0,1-.82.25.4.4,0,0,1-.16-.52.1.1,0,0,1,.09-.09Zm1,0c-.05-.13-.09-.31,0-.4s.68-.32.86-.07a.37.37,0,0,1-.12.52h0c-.2.11-.61.25-.74-.05Zm1.44-2.39c.09,0,.18.11.25.25a.42.42,0,0,1,0,.38c-.12.09-.5.32-.75.18a.44.44,0,0,1-.18-.36C20.62,16.9,21.11,16.77,21.38,16.79Zm-.11-.57a.35.35,0,0,1,0,.34.65.65,0,0,1-.65.21.33.33,0,0,1-.09-.46.64.64,0,0,1,.61-.2s.07.07.11.11Zm-.43-.92c.21,0,.25.31.21.43a.51.51,0,0,1-.21.2.59.59,0,0,1-.47.05.34.34,0,0,1-.12-.41.59.59,0,0,1,.59-.27Zm-.22-.41c0,.16-.07.25-.21.32s-.31.13-.4,0a.26.26,0,0,1-.05-.38l0,0c.18-.19.5-.32.64,0Zm-.55-.7c.09,0,.14.07.16.16a.27.27,0,0,1-.09.25.82.82,0,0,1-.31.11.21.21,0,0,1-.21-.25.11.11,0,0,1,0-.07.43.43,0,0,1,.43-.2Zm-.34-.45a.14.14,0,0,1,.12.18v0a.36.36,0,0,1-.16.14c-.14.09-.25,0-.29-.05s.18-.36.33-.29Zm-.18.9a.27.27,0,0,1,.07.36h0a.52.52,0,0,1-.38.18A.23.23,0,0,1,19,15a.32.32,0,0,1,0-.3.39.39,0,0,1,.54-.09Zm-.22-.54c.09.14,0,.27-.12.32s-.33.13-.42,0a.24.24,0,0,1,.09-.34s0,0,0,0,.27-.15.39,0Zm-.77-.45a.34.34,0,0,1,.43-.18.21.21,0,0,1,.11.13.24.24,0,0,1-.11.27.34.34,0,0,1-.36.07.2.2,0,0,1-.12-.27v0Zm.07.68a.33.33,0,0,1-.25.22c-.14,0-.32,0-.41,0a.2.2,0,0,1,0-.27.55.55,0,0,1,.52-.21.27.27,0,0,1,.18.3Zm-.84-.66a.37.37,0,0,1,.45-.23h0a.21.21,0,0,1,.09.3s0,0,0,.07a.49.49,0,0,1-.23.11c-.18,0-.36-.05-.27-.25Zm-.11,1c-.16,0-.41.07-.45-.11s.27-.34.47-.27a.21.21,0,0,1,.07.29s-.07.07-.09.09Zm-.48-.74a.34.34,0,0,1,.12-.12.53.53,0,0,1,.25,0c.15.07.13.25,0,.32a.5.5,0,0,1-.25,0,.16.16,0,0,1-.13-.2s0,0,0-.05Zm-.47.34a.34.34,0,0,1,.34,0c.11.11,0,.29-.18.29a.78.78,0,0,1-.21,0,.21.21,0,0,1,0-.25s0,0,0,0Zm-.14.52a.48.48,0,0,1,.41,0,.18.18,0,0,1,.09.2.26.26,0,0,1-.27.16c-.11,0-.25,0-.32-.11a.23.23,0,0,1,.05-.3Zm.46.63c.06,0,.09.09.11.13s0,.32-.16.34-.54.05-.54-.25.31-.34.59-.22Zm-.64.7c.21-.09.55-.11.68.09s.07.38-.09.43-.59.11-.7-.14A.29.29,0,0,1,16.41,16.09Zm-.13.83c.18-.18.43-.09.65-.06a.22.22,0,0,1,.14.06.36.36,0,0,1,0,.5l0,0c-.21.16-.45,0-.68,0a.31.31,0,0,1-.16-.14.42.42,0,0,1,.05-.43Zm0,1c.11-.27.56-.27.79-.16a.39.39,0,0,1,.09.52s-.05.07-.09.09a1.06,1.06,0,0,1-.63.05c-.23-.05-.25-.32-.16-.5Zm.16,1.15a.22.22,0,0,1,0-.32l0,0a1.13,1.13,0,0,1,.7-.05.37.37,0,0,1,.18.43.29.29,0,0,1-.06.21.86.86,0,0,1-.59.06c-.16,0-.2-.2-.29-.29Zm.92,1.13a1.58,1.58,0,0,1-.4-.54c-.05-.05,0-.07,0-.07.34-.09.59.07.54.45,0,.07-.07.23-.16.16ZM17.59,19a.24.24,0,0,1,.2-.16c.23-.05.48-.14.68,0s.09.11.09.23a.35.35,0,0,1-.11.36,1.07,1.07,0,0,1-.68.09c-.2-.07-.23-.34-.18-.52Zm.27.81c.27-.18.79-.31.88.18a.35.35,0,0,1-.2.41,1.08,1.08,0,0,1-.64.07.38.38,0,0,1-.13-.52.85.85,0,0,1,.09-.14Zm-.07,1.13a.28.28,0,0,1,0-.18,1.14,1.14,0,0,1,.77-.16c.31,0,.38.32.34.57s-.57.38-.7.34-.23-.37-.39-.57Zm.61,1s-.09-.19,0-.21c.4-.13.72-.13.79.3s-.16.58-.45.47c-.1,0-.19-.36-.3-.56Zm.84,1.53c-.23-.18-.25-.5-.41-.72a.39.39,0,0,1,.52.09s0,0,0,0c.07.19.12.43,0,.55s-.07.06-.09,0Zm.34.79c-.09,0-.09-.18-.14-.25a.5.5,0,0,1-.09-.29.53.53,0,0,1,.23.54Zm.43-.63a2.4,2.4,0,0,1-.12.38c0,.07-.06,0-.06,0a.8.8,0,0,1-.07-.59.39.39,0,0,1,.31-.2,1.49,1.49,0,0,1-.06.43Zm.36-1.29c-.07.18-.09.32-.16.48a.46.46,0,0,1-.5.15c-.22-.06-.4-.56-.16-.74a1.27,1.27,0,0,1,.64-.2.71.71,0,0,1,.2,0c.05.09,0,.16,0,.29Zm.34-1.13c-.07.09-.23-.22-.25-.36-.07-.41.29-.52.61-.52a2.08,2.08,0,0,1-.36.88Zm.49-1.26c-.09.25-.36.27-.58.31a.31.31,0,0,1-.23-.06.45.45,0,0,1-.16-.39.33.33,0,0,1,.21-.25c.18-.06.4-.2.61-.09A.49.49,0,0,1,21.2,19.91Zm.77-1.2c-.13.23-.27.43-.41.63a.2.2,0,0,1-.27,0s0,0,0,0-.2-.3-.11-.43a.89.89,0,0,1,.79-.3.12.12,0,0,1,0,.14Z"/><path class="cls-1" d="M7.94,10.78A4,4,0,0,0,7,12a3.24,3.24,0,0,0-.43,1.22,6.5,6.5,0,0,0,2.5-2c.55-.63,1-1.44,1.5-2.07A7.22,7.22,0,0,0,7.94,10.78Z"/><path class="cls-1" d="M5.12,12.11a7.4,7.4,0,0,1,1.44-1.76,7.63,7.63,0,0,0-.68,1.81c-.22,1.35-.4,2.3-.63,3.52.61-.43,1.27-1.13,1.9-1.6s1-.61,1.51-1a6.82,6.82,0,0,0,.77-.75,6.28,6.28,0,0,1-2.24,3.19,17.62,17.62,0,0,0-3,2.53A9.87,9.87,0,0,1,5.12,12.11Z"/><path class="cls-1" d="M1.82,18.89A15.49,15.49,0,0,1,2.27,16,4.4,4.4,0,0,1,3.4,13.72a5.51,5.51,0,0,0-.14.92,28.72,28.72,0,0,0,.12,3.46,7.87,7.87,0,0,1-.07,1.45,6.54,6.54,0,0,0,0,1.17A4.14,4.14,0,0,0,3.83,20,9.67,9.67,0,0,1,5,18.33,11.69,11.69,0,0,1,7,16.68a7.13,7.13,0,0,1-.61,1.24c-.21.36-.3.68-.77,1.47-.68,1.1-1,1.26-1.72,2.46-.16.25-.81,1.24-1,1.54C2.54,22.66,2.4,22,2,20.86A4.83,4.83,0,0,1,1.82,18.89Z"/><path class="cls-1" d="M.78,24.4a13.67,13.67,0,0,1-.73-3.11,5.05,5.05,0,0,1,.18-2.22c.07.16.19.57.21.61a10.56,10.56,0,0,0,.49,1.47,13.48,13.48,0,0,0,.68,1.24,12.36,12.36,0,0,1,.59,1.34c.52,1.28.57,2.5.77,2.64a2.31,2.31,0,0,0,.2-.77,6,6,0,0,1,2.15-4.43,4.6,4.6,0,0,1,0,1.92,9.33,9.33,0,0,1-.89,2.67c-.24.56-.58,1.38-.67,1.65-.25.7-.32,1.06-.48,1.49A31.87,31.87,0,0,1,.78,24.4Z"/><path class="cls-1" d="M2.18,31A9.89,9.89,0,0,1,1,28.79a9.05,9.05,0,0,1-.64-1.88,3,3,0,0,1-.09-1.15,13.49,13.49,0,0,0,1.43,2.53c.5.56,1,1,1.35,1.54.61.74,1.09,1.42,1.65,2.19a4.69,4.69,0,0,0,0-1.4,7.18,7.18,0,0,1,.11-2.4,16,16,0,0,1,.7-2.64A7.93,7.93,0,0,1,6,28.4a19.15,19.15,0,0,1-.45,4.88,7.14,7.14,0,0,0,0,1,25.45,25.45,0,0,1-2.33-2.08A14.9,14.9,0,0,1,2.18,31Z"/><path class="cls-1" d="M5.39,37.6a10.35,10.35,0,0,1-1.92-1.7,8,8,0,0,1-1.36-2.35,3.53,3.53,0,0,1-.34-1.12c1.54,1.85,2.94,2.14,4.41,3.68.54.56,1.08,1.11,1.38,1.38a1.08,1.08,0,0,0,.52.27,1.77,1.77,0,0,0-.19-.68,10.73,10.73,0,0,1-1-5.94,8.67,8.67,0,0,1,.88,1.47,14.24,14.24,0,0,1,.61,1.31C9.2,36,9.43,38.44,10,39.66A15.09,15.09,0,0,1,5.39,37.6Z"/><path class="cls-1" d="M12,42.53a9.23,9.23,0,0,1-1.74-.05,8.3,8.3,0,0,1-5.51-3.86A12.79,12.79,0,0,0,7.26,39.9c.77.28,1.49.34,2.76.7a15.76,15.76,0,0,1,1.78.64,2.82,2.82,0,0,0,1.22.25s0-.14-.31-.48c-.64-.7-.86-.86-1.4-1.38a6.23,6.23,0,0,1-.77-1.17c-.57-1.13-.63-2-1.13-3.26a10,10,0,0,1,3.79,4.55,8.57,8.57,0,0,0,1.09,1.65c.25.24.61.63.61.63s-.27.07-1.09.18C13.45,42.23,12.68,42.48,12,42.53Z"/><path class="cls-1" d="M21.07,42.68a15,15,0,0,1,2.78.73,7.41,7.41,0,0,1,.86.4,12.58,12.58,0,0,1,1.55.91A12.72,12.72,0,0,1,29,47s.16.15.07.25-.59.31-.72.2c-.79-.7-.75-.93-1.7-1.79a13,13,0,0,0-1.06-.83A10.73,10.73,0,0,0,24.12,44a3.46,3.46,0,0,0-1.49-.27h0c-.18,0-1.16,0-1.4,0a8.72,8.72,0,0,0-3,.61,23.57,23.57,0,0,1-2.9.56,10.81,10.81,0,0,1-2.84,0A9.25,9.25,0,0,1,8.8,43.75c.95,0,1.94.2,2.89.13a8.51,8.51,0,0,0,1.49-.22c.88-.28,1.38-.37,2.31-.64a15.11,15.11,0,0,1,2.41-.38A9.91,9.91,0,0,1,21.07,42.68Z"/><path class="cls-1" d="M38.85,10.78a4,4,0,0,1,.9,1.17,3.24,3.24,0,0,1,.43,1.22,6.36,6.36,0,0,1-2.5-2c-.55-.63-1-1.44-1.5-2.07A7.14,7.14,0,0,1,38.85,10.78Z"/><path class="cls-1" d="M41.68,12.11a7.69,7.69,0,0,0-1.45-1.76,10,10,0,0,1,.68,1.81,35.13,35.13,0,0,0,.63,3.52c-.61-.43-1.27-1.13-1.9-1.6s-1-.61-1.51-1a6.82,6.82,0,0,1-.77-.75,6.46,6.46,0,0,0,2.24,3.19,17.62,17.62,0,0,1,3,2.53A9.79,9.79,0,0,0,41.68,12.11Z"/><path class="cls-1" d="M45,18.89A16.35,16.35,0,0,0,44.54,16a4.46,4.46,0,0,0-1.12-2.23,6.79,6.79,0,0,1,.13.92,26.82,26.82,0,0,1-.13,3.46,7.86,7.86,0,0,0,.06,1.45,6.54,6.54,0,0,1,0,1.17A4.14,4.14,0,0,1,43,20a8.85,8.85,0,0,0-1.19-1.64,11.9,11.9,0,0,0-1.9-1.65,6.49,6.49,0,0,0,.61,1.24c.2.36.29.68.77,1.47.67,1.1,1,1.26,1.71,2.46.16.25.82,1.24,1,1.54.34-.73.48-1.36.91-2.53A5.89,5.89,0,0,0,45,18.89Z"/><path class="cls-1" d="M46,24.4a12.25,12.25,0,0,0,.73-3.11,5.22,5.22,0,0,0-.21-2.22c-.06.16-.2.57-.2.61a10.6,10.6,0,0,1-.5,1.47,11.45,11.45,0,0,1-.68,1.24c-.22.43-.4.88-.58,1.34-.52,1.28-.57,2.5-.77,2.64a2.31,2.31,0,0,1-.2-.77,6,6,0,0,0-2.15-4.43,4.6,4.6,0,0,0,0,1.92,9.31,9.31,0,0,0,.88,2.67c.25.56.59,1.38.68,1.65.25.7.32,1.06.48,1.49A30.07,30.07,0,0,0,46,24.4Z"/><path class="cls-1" d="M44.61,31a9.89,9.89,0,0,0,1.22-2.17,7.59,7.59,0,0,0,.64-1.88,3,3,0,0,0,.09-1.15,14.7,14.7,0,0,1-1.43,2.53c-.49.56-1,1-1.35,1.54-.61.74-1.09,1.42-1.65,2.19a4.69,4.69,0,0,1,0-1.4,7.18,7.18,0,0,0-.11-2.4,16,16,0,0,0-.7-2.64,7.93,7.93,0,0,0-.57,2.82,20.12,20.12,0,0,0,.45,4.88,7.14,7.14,0,0,1,0,1,25.45,25.45,0,0,0,2.33-2.08A14.9,14.9,0,0,0,44.61,31Z"/><path class="cls-1" d="M41.4,37.6a10.35,10.35,0,0,0,1.92-1.7,7.51,7.51,0,0,0,1.34-2.35A3.53,3.53,0,0,0,45,32.43c-1.54,1.85-2.94,2.14-4.41,3.68-.54.56-1.08,1.11-1.38,1.38a1.13,1.13,0,0,1-.49.27,1.6,1.6,0,0,1,.18-.68,10.56,10.56,0,0,0,1-5.94A8.67,8.67,0,0,0,39,32.61a14.24,14.24,0,0,0-.61,1.31c-.83,2.1-1.06,4.52-1.58,5.74A15.09,15.09,0,0,0,41.4,37.6Z"/><path class="cls-1" d="M34.83,42.53a9.21,9.21,0,0,0,1.74-.05,8.28,8.28,0,0,0,5.51-3.86,12.79,12.79,0,0,1-2.53,1.28c-.77.28-1.49.34-2.76.7a16.56,16.56,0,0,0-1.78.64,2.82,2.82,0,0,1-1.22.25s0-.14.32-.48c.63-.7.85-.86,1.37-1.38a6.23,6.23,0,0,0,.77-1.17c.57-1.13.63-2,1.15-3.26a10,10,0,0,0-3.79,4.55A7.83,7.83,0,0,1,32.5,41.4c-.25.24-.61.63-.61.63s.27.07,1.09.18C33.31,42.23,34.11,42.48,34.83,42.53Z"/><path class="cls-1" d="M25.72,42.68a14.09,14.09,0,0,0-2.75.73,6.14,6.14,0,0,0-.86.4,12.71,12.71,0,0,0-1.56.91A13.24,13.24,0,0,0,17.86,47s-.16.15-.07.25.59.31.72.2c.8-.7.75-.93,1.7-1.79.34-.29.68-.56,1.06-.83A11.41,11.41,0,0,1,22.69,44a3.84,3.84,0,0,1,1.5-.27h0c.18,0,1.15,0,1.37,0a8.72,8.72,0,0,1,3,.61,23.93,23.93,0,0,0,2.9.56,10.81,10.81,0,0,0,2.84,0A9.16,9.16,0,0,0,38,43.75c-.95,0-1.94.2-2.89.13a8.37,8.37,0,0,1-1.49-.22c-.89-.28-1.38-.37-2.31-.64a15.06,15.06,0,0,0-2.42-.38A9.74,9.74,0,0,0,25.72,42.68Z"/><path class="cls-1" d="M22.24,0,20.5,6.49H18.65L17.48,2.26,16.35,6.49H14.49L12.75,0h1.74l1,4.47L16.68,0h1.68l1.13,4.47,1-4.47Z"/><path class="cls-1" d="M28,1.24H25v1.2h2.76V3.68H25V6.46H23.33V0H28Z"/><path class="cls-1" d="M34.49,2.06a2.25,2.25,0,0,1-.16.85,2,2,0,0,1-.43.71A2.78,2.78,0,0,1,33,4.2a3.44,3.44,0,0,1-1.17.21h-1v2.1H29.16V0h2.75a4,4,0,0,1,1,.11,2.78,2.78,0,0,1,.75.32,1.68,1.68,0,0,1,.59.65A1.94,1.94,0,0,1,34.49,2.06Zm-1.72,0a.91.91,0,0,0-.13-.48.89.89,0,0,0-.34-.27,1.51,1.51,0,0,0-.52-.11h-1V3.16h.47c.23,0,.48,0,.7,0a1,1,0,0,0,.48-.21.67.67,0,0,0,.22-.33,1.82,1.82,0,0,0,.07-.5Z"/></g></g></g></svg>