<svg xmlns="http://www.w3.org/2000/svg" viewBox="0 0 141.52 53.39"><defs><style>.cls-1{fill:#394395;}</style></defs><g id="Capa_2" data-name="Capa 2"><g id="Capa_1-2" data-name="Capa 1"><path class="cls-1" d="M57.83,17.88c0-5.78,3.91-13.21,13.63-13.21a13.05,13.05,0,0,1,13.4,13,14.53,14.53,0,0,1-3.46,9.15A14.16,14.16,0,0,1,71.3,31C64,31,57.83,25.76,57.83,17.88m32.11-.13C89.94,8.45,82.77,0,71.24,0,59.39,0,52.69,8.7,52.69,17.88c0,9.66,7.43,17.69,18.29,17.69,11.34,0,19-7.88,19-17.82"/><rect class="cls-1" x="95.72" y="0.48" width="4.99" height="34.65"/><polygon class="cls-1" points="125.86 21.56 136.53 8.13 136.53 35.13 141.52 35.13 141.52 0.48 136.88 0.48 125.42 14.7 113.89 0.48 109.19 0.48 109.19 35.13 114.17 35.13 114.17 8.13 124.94 21.56 125.86 21.56"/><path class="cls-1" d="M9.62,50.5a4.77,4.77,0,0,1-3.36,1.36,4.38,4.38,0,1,1,.06-8.76,4.35,4.35,0,0,1,4.48,4.35,4.92,4.92,0,0,1-1.18,3m-3.36-9a5.93,5.93,0,1,0-.1,11.85c3.78,0,6.32-2.61,6.32-5.94a5.93,5.93,0,0,0-6.22-5.91"/><polygon class="cls-1" points="23.85 50.66 16.04 41.7 14.7 41.7 14.7 53.26 16.26 53.26 16.26 44.37 24.01 53.26 25.41 53.26 25.41 41.7 23.85 41.7 23.85 50.66"/><path class="cls-1" d="M36.65,48.24a4.56,4.56,0,0,1-.32,2.16,3.13,3.13,0,0,1-3,1.53,3.43,3.43,0,0,1-2.61-1c-.57-.6-.73-1.2-.73-2.73V41.7H28.36v6.54A6,6,0,0,0,29,51.39a5,5,0,0,0,4.35,2A5.33,5.33,0,0,0,37,52.15a4.87,4.87,0,0,0,1.3-3.91V41.7H36.65Z"/><polygon class="cls-1" points="51.42 46.43 47.58 41.7 46.02 41.7 46.02 53.26 47.67 53.26 47.67 44.24 51.26 48.72 51.58 48.72 55.13 44.24 55.13 53.26 56.79 53.26 56.79 41.7 55.26 41.7 51.42 46.43"/><rect class="cls-1" x="60.09" y="41.7" width="1.65" height="11.56"/><path class="cls-1" d="M70.66,49h2.23v2.38a6.67,6.67,0,0,1-2.51.51,4.36,4.36,0,0,1-4.64-4.45A4.43,4.43,0,0,1,70.22,43a8.54,8.54,0,0,1,4.1,1.21V42.53a9.61,9.61,0,0,0-4.07-1,6,6,0,0,0-6.26,6c0,2.63,1.85,5.81,6.33,5.81a9.78,9.78,0,0,0,4.25-1V47.58H70.66V49"/><path class="cls-1" d="M81.56,46.56a5.44,5.44,0,0,1-1.62.19H79.3V43.1h.51a4.36,4.36,0,0,1,2,.28,1.68,1.68,0,0,1,.89,1.53,1.76,1.76,0,0,1-1.11,1.65m.86,1.21a2.91,2.91,0,0,0,1.93-2.86,2.94,2.94,0,0,0-1.81-2.83,4.5,4.5,0,0,0-2-.38H77.65V53.26H79.3v-5h.45c.79,0,1.33,0,2.48,1.46.38.48,2,3,2.38,3.59h2c-.8-1.14-1.08-1.52-1.59-2.32a9.67,9.67,0,0,0-2.57-3.17"/><path class="cls-1" d="M90.83,48.34l1.72-4.16,1.87,4.16ZM92,41.64l-5,11.62h1.69l1.46-3.43h4.89l1.55,3.43h1.69L93.18,41.64H92"/><path class="cls-1" d="M100.71,47.51a4.37,4.37,0,0,1,4.57-4.38,8,8,0,0,1,4,1.14V42.49a10.33,10.33,0,0,0-4-1A6,6,0,0,0,99,47.48a5.88,5.88,0,0,0,6.23,5.91,8.51,8.51,0,0,0,4.19-1V50.56a7.6,7.6,0,0,1-4.1,1.3,4.31,4.31,0,0,1-4.6-4.35"/><rect class="cls-1" x="112.27" y="41.7" width="1.65" height="11.56"/><path class="cls-1" d="M126.08,50.5a4.76,4.76,0,0,1-3.36,1.36,4.38,4.38,0,1,1,4.51-4.41,4.88,4.88,0,0,1-1.15,3m-3.39-9a5.93,5.93,0,1,0-.1,11.85c3.78,0,6.32-2.61,6.32-5.94a5.93,5.93,0,0,0-6.22-5.91"/><polygon class="cls-1" points="121.48 40.91 122.37 40.91 125.13 38.37 122.72 38.37 121.48 40.91"/><polygon class="cls-1" points="139.96 41.7 139.96 50.66 132.15 41.7 130.82 41.7 130.82 53.26 132.37 53.26 132.37 44.37 140.09 53.26 141.52 53.26 141.52 41.7 139.96 41.7"/><path class="cls-1" d="M18.17,14.51a.7.7,0,0,0,0-1.39.7.7,0,1,0,0,1.39"/><path class="cls-1" d="M26.27,15a.31.31,0,0,0-.29-.19H23.85a.29.29,0,0,0-.28.19L22.23,18.2H20.9L19.53,15a.27.27,0,0,0-.28-.19H17.09a.3.3,0,0,0-.29.19l-1.4,3.34a.34.34,0,0,0,.1.41.29.29,0,0,0,.16,0,.3.3,0,0,0,.28-.19l1.27-2.95.07,2.89-.45,3.65a.3.3,0,0,0,.19.32.14.14,0,0,0,.1,0,.35.35,0,0,0,.32-.26l.44-3.49h.6l.45,3.49a.34.34,0,0,0,.32.26.11.11,0,0,0,.09,0,.29.29,0,0,0,.19-.32l-.47-3.65.09-2.89,1.27,2.95v.06h0v0h0s0,0,0,0,0,0,.06,0a0,0,0,0,0,0,0h.32l-.38,2.06a.55.55,0,0,0,.09.42.79.79,0,0,0,.23.16v.85a.25.25,0,0,0,.25.26.27.27,0,0,0,.25-.26v-.82h.39v.82a.25.25,0,0,0,.25.26.27.27,0,0,0,.25-.26v-.85a1.6,1.6,0,0,0,.23-.16.55.55,0,0,0,.09-.42l-.41-2.06h.32s0,0,0,0h0a0,0,0,0,0,0,0h0l0,0,0,0s0,0,0-.06l1.3-3,.25,1.24a1.24,1.24,0,0,1,0,.63l-1.17,5.12h3.68L25.57,17.4a1.12,1.12,0,0,1,0-.6l.28-1.27,1,2.48a.3.3,0,0,0,.28.19.21.21,0,0,0,.13,0,.29.29,0,0,0,.16-.39L26.27,15"/><path class="cls-1" d="M24.9,14.51a.7.7,0,1,0-.7-.7.7.7,0,0,0,.7.7"/><path class="cls-1" d="M21.56,18a.51.51,0,0,0,.51-.54.5.5,0,0,0-.51-.51.53.53,0,0,0-.54.51.54.54,0,0,0,.54.54"/><path class="cls-1" d="M38.91,23.69H35.76a10.6,10.6,0,0,0,1.3-5.05v-.47H40.3a16.73,16.73,0,0,1-1.39,5.52M33,30.55a10.84,10.84,0,0,0-2.26-1.71,12.65,12.65,0,0,0,4.39-4.07H38.4A15.8,15.8,0,0,1,33,30.55m-7.15,2.16V28.39A9.75,9.75,0,0,1,32.17,31a14.16,14.16,0,0,1-6.32,1.68M34,24.77A11.22,11.22,0,0,1,29.6,28.3a11.16,11.16,0,0,0-3.75-.83v-2.7ZM16.1,23.69a9.73,9.73,0,0,1-1.46-5.05v-.06l0-1.08h-8V17a9.94,9.94,0,0,1,1.43-5H26.68a10,10,0,0,1,1.46,5v.07h0v1.08h8c0,.15,0,.35,0,.47a10,10,0,0,1-1.46,5.05Zm8.67,3.78a10.53,10.53,0,0,0-3.59.83,11.38,11.38,0,0,1-4.38-3.53h8Zm0,5.24A14.22,14.22,0,0,1,18.68,31a9.56,9.56,0,0,1,6.09-2.58ZM12.58,24.77h3.08A12.13,12.13,0,0,0,20,28.84a10.84,10.84,0,0,0-2.19,1.65,15.52,15.52,0,0,1-5.27-5.72M10.7,18.58h3v.06A10.74,10.74,0,0,0,15,23.69H12a16.2,16.2,0,0,1-1.34-5.11M2.45,17.5A16.54,16.54,0,0,1,3.84,12H7a11,11,0,0,0-1.3,5v.48ZM9.78,5.11A10.15,10.15,0,0,0,12,6.83a12.21,12.21,0,0,0-4.39,4.06H4.38a15.64,15.64,0,0,1,5.4-5.78m7.15,3.08v2.7H8.8a11.51,11.51,0,0,1,4.35-3.52,11.5,11.5,0,0,0,3.78.82m0-5.24V7.27a9.62,9.62,0,0,1-6.32-2.63A14.19,14.19,0,0,1,16.93,3M18,8.19a12.06,12.06,0,0,0,3.59-.82A11.36,11.36,0,0,1,26,10.89H18ZM18,3A14,14,0,0,1,24.07,4.7,9.75,9.75,0,0,1,18,7.27Zm12.16,7.94H27.12a12.69,12.69,0,0,0-4.38-4.06,12.69,12.69,0,0,0,2.19-1.65,15.34,15.34,0,0,1,5.24,5.71m1.91,6.2h-3V17a10.74,10.74,0,0,0-1.3-5h2.95a16.29,16.29,0,0,1,1.37,5.12M32.46.54A31.17,31.17,0,0,1,34.78,3a21.85,21.85,0,0,1,5.59,14c0,.06,0,.12,0,.16H34.49C33.6,7.84,26.23.54,17.28.54,7.75.54,0,8.73,0,18.9A25.36,25.36,0,0,0,6.64,35.13h3.65C9.34,34.24,8,32.71,8,32.71a21.84,21.84,0,0,1-5.59-14v-.16H8.26c.89,9.24,8.26,16.55,17.21,16.55,9.56,0,17.28-8.2,17.28-18.36A25.44,25.44,0,0,0,36.14.54H32.46"/></g></g></svg>