<svg xmlns="http://www.w3.org/2000/svg" viewBox="0 0 184.89 47.63"><defs><style>.cls-1{fill:#184594;}.cls-2{fill:#ffeb00;}.cls-3{fill:#575756;}.cls-4{fill:#009fe3;}.cls-5{fill:none;stroke:#575756;stroke-miterlimit:10;stroke-width:0.81px;}</style></defs><g id="Capa_2" data-name="Capa 2"><g id="Capa_1-2" data-name="Capa 1"><polygon class="cls-1" points="184.89 46.24 184.89 0.37 116.32 0.37 116.32 46.24 184.89 46.24 184.89 46.24"/><polygon class="cls-2" points="151.35 6.89 153.74 6.89 151.81 8.39 152.56 10.76 150.65 9.3 148.73 10.76 149.49 8.39 147.55 6.89 149.93 6.89 150.65 4.57 151.35 6.89 151.35 6.89"/><polygon class="cls-2" points="151.44 37.48 153.82 37.48 151.9 38.92 152.65 41.21 150.73 39.8 148.82 41.21 149.57 38.92 147.63 37.48 150.01 37.48 150.73 35.25 151.44 37.48 151.44 37.48"/><polygon class="cls-2" points="159 35.45 161.39 35.45 159.47 36.89 160.22 39.18 158.3 37.77 156.38 39.18 157.14 36.89 155.2 35.45 157.58 35.45 158.3 33.22 159 35.45 159 35.45"/><polygon class="cls-2" points="159 8.93 161.39 8.93 159.47 10.37 160.22 12.66 158.3 11.25 156.38 12.66 157.14 10.37 155.2 8.93 157.58 8.93 158.3 6.7 159 8.93 159 8.93"/><polygon class="cls-2" points="164.62 14.55 167.01 14.55 165.08 15.99 165.83 18.28 163.91 16.87 162 18.28 162.76 15.99 160.82 14.55 163.19 14.55 163.91 12.32 164.62 14.55 164.62 14.55"/><polygon class="cls-2" points="164.62 29.91 167.01 29.91 165.08 31.36 165.83 33.65 163.91 32.23 162 33.65 162.76 31.36 160.82 29.91 163.19 29.91 163.91 27.68 164.62 29.91 164.62 29.91"/><polygon class="cls-2" points="166.73 22.11 169.12 22.11 167.19 23.55 167.94 25.84 166.02 24.43 164.11 25.84 164.86 23.55 162.92 22.11 165.3 22.11 166.02 19.88 166.73 22.11 166.73 22.11"/><polygon class="cls-2" points="143.64 8.95 146.02 8.95 144.1 10.39 144.85 12.68 142.93 11.27 141.02 12.68 141.77 10.39 139.83 8.95 142.21 8.95 142.93 6.72 143.64 8.95 143.64 8.95"/><polygon class="cls-2" points="138.18 14.56 140.56 14.56 138.64 16.01 139.38 18.29 137.47 16.89 135.56 18.29 136.31 16.01 134.37 14.56 136.75 14.56 137.47 12.34 138.18 14.56 138.18 14.56"/><polygon class="cls-2" points="136.15 22.13 138.53 22.13 136.61 23.57 137.36 25.86 135.44 24.45 133.53 25.86 134.28 23.57 132.34 22.13 134.72 22.13 135.44 19.9 136.15 22.13 136.15 22.13"/><polygon class="cls-2" points="138.18 29.93 140.56 29.93 138.64 31.38 139.38 33.66 137.47 32.25 135.56 33.66 136.31 31.38 134.37 29.93 136.75 29.93 137.47 27.7 138.18 29.93 138.18 29.93"/><polygon class="cls-2" points="143.72 35.47 146.1 35.47 144.18 36.91 144.92 39.2 143.01 37.79 141.09 39.2 141.85 36.91 139.91 35.47 142.29 35.47 143.01 33.24 143.72 35.47 143.72 35.47"/><path class="cls-3" d="M28.77,8.3a1.83,1.83,0,0,1-.42.63,2,2,0,0,1-.65.42,2.28,2.28,0,0,1-.84.15A2.23,2.23,0,0,1,26,9.35a1.92,1.92,0,0,1-.65-.42A1.73,1.73,0,0,1,25,8.3a2.16,2.16,0,0,1-.15-.81V3.42h.45v4a1.83,1.83,0,0,0,.12.68,1.42,1.42,0,0,0,.32.53A1.5,1.5,0,0,0,26.2,9a1.88,1.88,0,0,0,1.32,0A1.5,1.5,0,0,0,28,8.64a1.59,1.59,0,0,0,.33-.53,2.06,2.06,0,0,0,.11-.68v-4h.46V7.49A2,2,0,0,1,28.77,8.3Z"/><path class="cls-3" d="M33.3,9.45V6.91A1.29,1.29,0,0,0,33,6a1.09,1.09,0,0,0-.84-.32,1.12,1.12,0,0,0-.85.32,1.25,1.25,0,0,0-.3.9V9.45H30.6V5.36H31v.49a1.51,1.51,0,0,1,2.71,1V9.45Z"/><path class="cls-3" d="M35.28,4V3.42h.53V4Zm0,5.5V5.36h.43V9.45Z"/><path class="cls-3" d="M40.36,8.29a1.48,1.48,0,0,1-.42.76,1.41,1.41,0,0,1-.5.33,1.61,1.61,0,0,1-.63.12,1.53,1.53,0,0,1-1.55-1.21,4.4,4.4,0,0,1,0-1.77,1.53,1.53,0,0,1,1.55-1.21,1.61,1.61,0,0,1,.63.12,1.41,1.41,0,0,1,.5.33,1.48,1.48,0,0,1,.42.76,4.4,4.4,0,0,1,0,1.77ZM40,7a2.35,2.35,0,0,0,0-.37,1.35,1.35,0,0,0-.11-.34.8.8,0,0,0-.2-.29,1.22,1.22,0,0,0-.38-.26A1.21,1.21,0,0,0,38,6a1.15,1.15,0,0,0-.2.29,1.93,1.93,0,0,0-.11.34,2.33,2.33,0,0,0,0,.37c0,.13,0,.25,0,.37s0,.24,0,.36a2.33,2.33,0,0,0,0,.37,1.93,1.93,0,0,0,.11.34,1.15,1.15,0,0,0,.2.29A1.21,1.21,0,0,0,39.27,9a1.22,1.22,0,0,0,.38-.26.8.8,0,0,0,.2-.29A1.35,1.35,0,0,0,40,8.14a2.35,2.35,0,0,0,0-.37c0-.12,0-.25,0-.36S40,7.17,40,7ZM38.9,4.45h-.49l.82-1.24h.57Z"/><path class="cls-3" d="M44.57,9.45V6.91a1.3,1.3,0,0,0-.29-.9,1.08,1.08,0,0,0-.84-.32,1.12,1.12,0,0,0-.85.32,1.25,1.25,0,0,0-.3.9V9.45h-.43V5.36h.43v.49a1.51,1.51,0,0,1,2.71,1V9.45Z"/><path class="cls-3" d="M48.86,9.45v-6h3.66v.4h-3.2V6.2H52v.41H49.32V9h3.2v.41Z"/><path class="cls-3" d="M56.47,9.45V9a1.5,1.5,0,0,1-1.2.54,1.53,1.53,0,0,1-1.09-.39A1.51,1.51,0,0,1,53.76,8V5.36h.43V7.9a1.3,1.3,0,0,0,.29.9,1.08,1.08,0,0,0,.84.32,1.12,1.12,0,0,0,.85-.32,1.25,1.25,0,0,0,.3-.9V5.36h.43V9.45Z"/><path class="cls-3" d="M60.84,6a1.09,1.09,0,0,0-.35-.26,1.22,1.22,0,0,0-.42-.07,1,1,0,0,0-.47.11.89.89,0,0,0-.34.27,1.22,1.22,0,0,0-.21.39,1.49,1.49,0,0,0-.07.47V9.45h-.44V5.36H59v.55a1.07,1.07,0,0,1,.5-.44,1.52,1.52,0,0,1,.69-.16,1.47,1.47,0,0,1,.53.09,1.22,1.22,0,0,1,.45.3Z"/><path class="cls-3" d="M64.67,8.29a1.55,1.55,0,0,1-.42.76,1.41,1.41,0,0,1-.5.33,1.61,1.61,0,0,1-.63.12,1.53,1.53,0,0,1-1.55-1.21,4.48,4.48,0,0,1-.1-.88,4.5,4.5,0,0,1,.1-.89,1.53,1.53,0,0,1,1.55-1.21,1.61,1.61,0,0,1,.63.12,1.41,1.41,0,0,1,.5.33,1.55,1.55,0,0,1,.42.76,4.4,4.4,0,0,1,0,1.77ZM64.32,7a2.35,2.35,0,0,0,0-.37,1.35,1.35,0,0,0-.11-.34A.94.94,0,0,0,64,6a1.15,1.15,0,0,0-.84-.35,1.13,1.13,0,0,0-1,.64,1.93,1.93,0,0,0-.11.34c0,.12,0,.25-.05.37v.73c0,.12,0,.25.05.37a1.93,1.93,0,0,0,.11.34,1.13,1.13,0,0,0,1,.64A1.15,1.15,0,0,0,64,8.77a.94.94,0,0,0,.2-.29,1.35,1.35,0,0,0,.11-.34,2.35,2.35,0,0,0,0-.37c0-.12,0-.25,0-.36S64.32,7.17,64.32,7Z"/><path class="cls-3" d="M69.23,8.36a1.56,1.56,0,0,1-.42.78,1.25,1.25,0,0,1-.42.26,1.76,1.76,0,0,1-.58.1,2,2,0,0,1-.65-.11,1.39,1.39,0,0,1-.56-.47v2.47h-.43v-6h.43v.53a1.39,1.39,0,0,1,.56-.47,2,2,0,0,1,.65-.11,1.76,1.76,0,0,1,.58.1,1.25,1.25,0,0,1,.42.26,1.56,1.56,0,0,1,.42.78,4.61,4.61,0,0,1,0,1.91Zm-.37-1.58a1.6,1.6,0,0,0-.16-.55,1,1,0,0,0-.35-.39,1.28,1.28,0,0,0-1.2,0,.94.94,0,0,0-.35.39,1.61,1.61,0,0,0-.17.55q0,.32,0,.63c0,.21,0,.42,0,.62a1.54,1.54,0,0,0,.17.55.94.94,0,0,0,.35.39,1.27,1.27,0,0,0,1.2,0,1,1,0,0,0,.35-.39A1.54,1.54,0,0,0,68.86,8a4.21,4.21,0,0,0,0-.62A4.44,4.44,0,0,0,68.86,6.78Z"/><path class="cls-3" d="M70.93,7.5a1.9,1.9,0,0,0,.34,1.2,1.21,1.21,0,0,0,1,.42A1.46,1.46,0,0,0,72.88,9a1.77,1.77,0,0,0,.51-.38l.32.26a3.74,3.74,0,0,1-.31.27,1.35,1.35,0,0,1-.33.19,1.53,1.53,0,0,1-.38.12,2.89,2.89,0,0,1-.45,0A1.56,1.56,0,0,1,71,9a2.33,2.33,0,0,1-.45-1.55,2.44,2.44,0,0,1,.43-1.55,1.46,1.46,0,0,1,1.2-.55,1.48,1.48,0,0,1,1.21.53,2.29,2.29,0,0,1,.43,1.46v.2Zm2.39-.6a1.08,1.08,0,0,0,0-.19,1.24,1.24,0,0,0,0-.16.7.7,0,0,0-.06-.17,1.08,1.08,0,0,0-.42-.5,1.17,1.17,0,0,0-.64-.19,1.14,1.14,0,0,0-.63.19,1.08,1.08,0,0,0-.42.5c0,.06,0,.12-.07.17a.75.75,0,0,1,0,.16,1.11,1.11,0,0,0,0,.19c0,.07,0,.16,0,.25h2.41C73.33,7.06,73.33,7,73.32,6.9Z"/><path class="cls-3" d="M77.56,9.45V9A1.5,1.5,0,0,1,77,9.4a2.21,2.21,0,0,1-.7.1,2.37,2.37,0,0,1-.73-.09.92.92,0,0,1-.47-.29,1,1,0,0,1-.23-.35,1.31,1.31,0,0,1-.07-.44,1,1,0,0,1,.38-.87,1.57,1.57,0,0,1,1-.31h1.32V6.69A1,1,0,0,0,77.3,6a1.26,1.26,0,0,0-.89-.26,1.59,1.59,0,0,0-.68.12,1.13,1.13,0,0,0-.45.4L75,5.94a1.46,1.46,0,0,1,.6-.5,2.56,2.56,0,0,1,.84-.13,1.77,1.77,0,0,1,1.2.35,1.25,1.25,0,0,1,.38,1v2.8Zm0-1.95H76.29c-.69,0-1,.27-1,.82a.7.7,0,0,0,.25.6,1.35,1.35,0,0,0,.82.2,2.48,2.48,0,0,0,.54-.06.89.89,0,0,0,.47-.26A1,1,0,0,0,77.56,8Z"/><path class="cls-3" d="M84.82,8.36a1.56,1.56,0,0,1-.42.78A1.08,1.08,0,0,1,84,9.4a1.72,1.72,0,0,1-.58.1,1.91,1.91,0,0,1-.64-.11,1.35,1.35,0,0,1-.57-.47v2.47h-.43v-6h.43v.53a1.35,1.35,0,0,1,.57-.47,1.91,1.91,0,0,1,.64-.11,1.72,1.72,0,0,1,.58.1,1.08,1.08,0,0,1,.42.26,1.56,1.56,0,0,1,.42.78,4.2,4.2,0,0,1,0,1.91Zm-.36-1.58a1.86,1.86,0,0,0-.16-.55A1,1,0,0,0,84,5.84a1.11,1.11,0,0,0-.6-.15,1.13,1.13,0,0,0-.61.15,1,1,0,0,0-.35.39,1.86,1.86,0,0,0-.16.55c0,.21,0,.42,0,.63s0,.42,0,.62a1.77,1.77,0,0,0,.16.55,1,1,0,0,0,.35.39,1.13,1.13,0,0,0,.61.15A1.11,1.11,0,0,0,84,9a1,1,0,0,0,.35-.39A1.77,1.77,0,0,0,84.46,8c0-.2,0-.41,0-.62S84.48,7,84.46,6.78Z"/><path class="cls-3" d="M88.73,9.45V9a1.59,1.59,0,0,1-.54.36,2.26,2.26,0,0,1-.7.1,2.48,2.48,0,0,1-.74-.09,1,1,0,0,1-.47-.29,1,1,0,0,1-.22-.35A1.31,1.31,0,0,1,86,8.33a1.07,1.07,0,0,1,.37-.87,1.58,1.58,0,0,1,1-.31h1.32V6.69A1,1,0,0,0,88.47,6a1.26,1.26,0,0,0-.89-.26,1.56,1.56,0,0,0-.68.12,1.13,1.13,0,0,0-.45.4l-.31-.27a1.35,1.35,0,0,1,.6-.5,2.56,2.56,0,0,1,.84-.13,1.77,1.77,0,0,1,1.2.35,1.28,1.28,0,0,1,.38,1v2.8Zm0-1.95H87.46c-.69,0-1,.27-1,.82a.7.7,0,0,0,.25.6,1.35,1.35,0,0,0,.82.2A2.33,2.33,0,0,0,88,9.06a.91.91,0,0,0,.48-.26A1.05,1.05,0,0,0,88.73,8Z"/><path class="cls-3" d="M93.07,6a1,1,0,0,0-.78-.33,1,1,0,0,0-.46.11.82.82,0,0,0-.34.27,1.07,1.07,0,0,0-.22.39,1.84,1.84,0,0,0-.07.47V9.45h-.43V5.36h.43v.55a1.1,1.1,0,0,1,.51-.44,1.46,1.46,0,0,1,.69-.16,1.51,1.51,0,0,1,.53.09,1.31,1.31,0,0,1,.45.3Z"/><path class="cls-3" d="M96.55,9.45V9A1.7,1.7,0,0,1,96,9.4a2.33,2.33,0,0,1-.71.1,2.41,2.41,0,0,1-.73-.09,1,1,0,0,1-.47-.29.84.84,0,0,1-.22-.35,1.32,1.32,0,0,1-.08-.44,1.08,1.08,0,0,1,.38-.87,1.57,1.57,0,0,1,1-.31h1.33V6.69A1,1,0,0,0,96.28,6a1.24,1.24,0,0,0-.89-.26,1.63,1.63,0,0,0-.68.12,1.17,1.17,0,0,0-.44.4L94,5.94a1.43,1.43,0,0,1,.61-.5,2.45,2.45,0,0,1,.83-.13,1.75,1.75,0,0,1,1.2.35,1.25,1.25,0,0,1,.39,1v2.8Zm0-1.95H95.27c-.69,0-1,.27-1,.82a.71.71,0,0,0,.26.6,1.34,1.34,0,0,0,.81.2,2.35,2.35,0,0,0,.54-.06,1,1,0,0,0,.48-.26A1.05,1.05,0,0,0,96.55,8Z"/><path class="cls-3" d="M13.64,21.72h-1.2V13.41h5v1.2H13.64V17H17v1.22H13.64Z"/><path class="cls-3" d="M19.47,17.5h1.4a1.45,1.45,0,1,0,0-2.89H19v7.11H17.84V13.39h3a2.59,2.59,0,0,1,2.72,2.66,2.5,2.5,0,0,1-2.16,2.54l2.63,3.13H22.5l-3-3.65Z"/><path class="cls-3" d="M25.05,14.55a4.21,4.21,0,0,1,6,0,4.27,4.27,0,0,1,0,6,4.21,4.21,0,0,1-6,0,4.27,4.27,0,0,1,0-6Zm5.15.85a3.09,3.09,0,0,0-2.15-.9,3.05,3.05,0,0,0-2.13,5.21,3,3,0,0,0,2.13.91,3.06,3.06,0,0,0,2.15-.91,3,3,0,0,0,.88-2.15A3.05,3.05,0,0,0,30.2,15.4Z"/><path class="cls-3" d="M33.05,21.72V13.38H34L38,19.26V13.39h1.19v8.33h-1l-4-5.82v5.82Z"/><path class="cls-3" d="M41.15,21.76V14.51H38.63V13.39h6.24v1.12H42.36v7.25Z"/><path class="cls-3" d="M46.58,20.52h3.87v1.2H45.37V13.41h5.07v1.2H46.58V17h3.77v1.22H46.58Z"/><path class="cls-3" d="M52.63,17.5H54a1.45,1.45,0,1,0,0-2.89H52.19v7.11H51V13.39h3a2.58,2.58,0,0,1,2.71,2.66,2.49,2.49,0,0,1-2.15,2.54l2.63,3.13H55.66l-3-3.65Z"/><path class="cls-3" d="M62.27,19.27h-3c-.32.76-.74,1.76-1,2.45H57l3.35-8.43h.88l3.34,8.43H63.26Zm-2.54-1.13H61.8l-1-2.94Z"/><path class="cls-4" d="M64.68,21.72V13.38h.93l4.06,5.87V13.39h1.19v8.33h-1l-4-5.82v5.82Z"/><path class="cls-4" d="M72.7,14.55a4.21,4.21,0,0,1,6,0,4.27,4.27,0,0,1,0,6,4.21,4.21,0,0,1-6,0,4.3,4.3,0,0,1,0-6Zm5.15.85a3.08,3.08,0,0,0-2.15-.9,3.05,3.05,0,0,0-2.13,5.21,3,3,0,0,0,2.13.91,3.06,3.06,0,0,0,2.15-5.22Z"/><path class="cls-4" d="M82.34,17.5h1.41a1.45,1.45,0,1,0,0-2.89H81.9v7.11H80.71V13.39h3a2.59,2.59,0,0,1,2.71,2.66,2.5,2.5,0,0,1-2.15,2.54l2.63,3.13H85.38l-3-3.65Z"/><path class="cls-4" d="M88.13,21.76V14.51H85.6V13.39h6.24v1.12H89.33v7.25Z"/><path class="cls-4" d="M93.55,20.52h3.87v1.2H92.34V13.41h5.07v1.2H93.55V17h3.77v1.22H93.55Z"/><path class="cls-3" d="M54.5,32.62a.93.93,0,0,1-.74-.31,1.17,1.17,0,0,1-.26-.78V28.79h-.57v-.33h.57V27.13h.44v1.33h.94v.33h-.94v2.75a.78.78,0,0,0,.16.51.59.59,0,0,0,.48.18h.3v.39Z"/><path class="cls-3" d="M56.32,30.63a1.94,1.94,0,0,0,.34,1.23,1.24,1.24,0,0,0,1,.42,1.4,1.4,0,0,0,.62-.12,1.7,1.7,0,0,0,.53-.38l.32.26a2.61,2.61,0,0,1-.31.27,1.68,1.68,0,0,1-.34.2,1.13,1.13,0,0,1-.38.12,2.23,2.23,0,0,1-.47,0,1.61,1.61,0,0,1-1.31-.54,2.47,2.47,0,0,1-.45-1.59A2.43,2.43,0,0,1,56.32,29a1.44,1.44,0,0,1,1.22-.56,1.5,1.5,0,0,1,1.22.53,2.27,2.27,0,0,1,.45,1.49v.2ZM58.75,30l0-.19a1.24,1.24,0,0,0,0-.16,1.89,1.89,0,0,1-.06-.18,1.13,1.13,0,0,0-.43-.51,1.26,1.26,0,0,0-1.3,0,1.13,1.13,0,0,0-.43.51.94.94,0,0,0-.06.18,1.24,1.24,0,0,0,0,.16l0,.19c0,.08,0,.16,0,.26h2.44C58.76,30.18,58.75,30.1,58.75,30Z"/><path class="cls-3" d="M63,29.12a1.45,1.45,0,0,0-.36-.26,1.31,1.31,0,0,0-.43-.06,1,1,0,0,0-.47.1,1.06,1.06,0,0,0-.35.27,1.16,1.16,0,0,0-.22.41,1.49,1.49,0,0,0-.07.47v2.57h-.44V28.46h.44V29a1.25,1.25,0,0,1,.51-.45,1.77,1.77,0,0,1,1.24-.07,1.32,1.32,0,0,1,.47.31Z"/><path class="cls-3" d="M66.49,29.12a1.26,1.26,0,0,0-.35-.26,1.35,1.35,0,0,0-.43-.06,1.06,1.06,0,0,0-.48.1,1.13,1.13,0,0,0-.34.27,1.16,1.16,0,0,0-.22.41,1.49,1.49,0,0,0-.07.47v2.57h-.44V28.46h.44V29a1.25,1.25,0,0,1,.51-.45,1.69,1.69,0,0,1,.7-.15,1.8,1.8,0,0,1,.54.08,1.29,1.29,0,0,1,.46.31Z"/><path class="cls-3" d="M67.63,27v-.55h.55V27Zm.06,5.6V28.46h.43v4.16Z"/><path class="cls-3" d="M70.9,32.62a.91.91,0,0,1-.74-.31,1.17,1.17,0,0,1-.26-.78V28.79h-.57v-.33h.57V27.13h.44v1.33h.94v.33h-.94v2.75a.73.73,0,0,0,.16.51.59.59,0,0,0,.48.18h.3v.39Z"/><path class="cls-3" d="M75.53,31.44a1.6,1.6,0,0,1-.43.77,1.57,1.57,0,0,1-.51.34,1.66,1.66,0,0,1-.64.12,1.56,1.56,0,0,1-1.16-.46,1.51,1.51,0,0,1-.42-.77,4.1,4.1,0,0,1,0-1.8,1.5,1.5,0,0,1,.42-.78A1.59,1.59,0,0,1,74,28.41a1.87,1.87,0,0,1,.64.11,1.59,1.59,0,0,1,.94,1.12,4.54,4.54,0,0,1,0,1.8Zm-.36-1.27a2.45,2.45,0,0,0,0-.38,2.06,2.06,0,0,0-.12-.35.94.94,0,0,0-.2-.29,1.11,1.11,0,0,0-.39-.26A1.27,1.27,0,0,0,74,28.8a1.14,1.14,0,0,0-.86.35,1,1,0,0,0-.21.29,2,2,0,0,0-.11.35,2.47,2.47,0,0,0,0,.38c0,.12,0,.25,0,.37s0,.24,0,.37a2.2,2.2,0,0,0,0,.37,1.79,1.79,0,0,0,.11.35,1,1,0,0,0,.21.3,1.18,1.18,0,0,0,.86.35,1.2,1.2,0,0,0,.86-.35,1,1,0,0,0,.2-.3,1.8,1.8,0,0,0,.12-.35,2.21,2.21,0,0,0,0-.37c0-.13,0-.25,0-.37S75.18,30.29,75.17,30.17Z"/><path class="cls-3" d="M79.39,29.12a1.29,1.29,0,0,0-.36-.26,1.25,1.25,0,0,0-.42-.06,1.06,1.06,0,0,0-.48.1,1.17,1.17,0,0,0-.35.27,1.32,1.32,0,0,0-.21.41,1.5,1.5,0,0,0-.08.47v2.57h-.44V28.46h.44V29a1.27,1.27,0,0,1,.52-.45,1.66,1.66,0,0,1,.7-.15,1.8,1.8,0,0,1,.54.08,1.29,1.29,0,0,1,.46.31Z"/><path class="cls-3" d="M80.53,27v-.55h.54V27Zm0,5.6V28.46H81v4.16Z"/><path class="cls-3" d="M85.71,31.44a1.6,1.6,0,0,1-.43.77,1.57,1.57,0,0,1-.51.34,1.66,1.66,0,0,1-.64.12A1.56,1.56,0,0,1,83,32.21a1.51,1.51,0,0,1-.42-.77,4.1,4.1,0,0,1,0-1.8,1.5,1.5,0,0,1,.42-.78,1.59,1.59,0,0,1,1.16-.45,1.87,1.87,0,0,1,.64.11,1.59,1.59,0,0,1,.94,1.12,4.54,4.54,0,0,1,0,1.8Zm-.36-1.27a2.45,2.45,0,0,0,0-.38,2.06,2.06,0,0,0-.12-.35.94.94,0,0,0-.2-.29,1.11,1.11,0,0,0-.39-.26,1.27,1.27,0,0,0-.47-.09,1.18,1.18,0,0,0-.87.35,1.15,1.15,0,0,0-.2.29,2,2,0,0,0-.11.35,2.47,2.47,0,0,0,0,.38c0,.12,0,.25,0,.37s0,.24,0,.37a2.2,2.2,0,0,0,0,.37,1.79,1.79,0,0,0,.11.35,1.11,1.11,0,0,0,1.07.65,1.2,1.2,0,0,0,.86-.35,1,1,0,0,0,.2-.3,1.8,1.8,0,0,0,.12-.35,2.21,2.21,0,0,0,0-.37c0-.13,0-.25,0-.37S85.36,30.29,85.35,30.17Z"/><path class="cls-3" d="M92,32.62v-.54a1.47,1.47,0,0,1-.58.48,2,2,0,0,1-.66.11,1.63,1.63,0,0,1-.59-.1,1.16,1.16,0,0,1-.42-.26,1.57,1.57,0,0,1-.43-.8,4.33,4.33,0,0,1,0-1.94,1.53,1.53,0,0,1,.43-.8,1,1,0,0,1,.42-.26,1.63,1.63,0,0,1,.59-.1,1.76,1.76,0,0,1,.66.11A1.36,1.36,0,0,1,92,29V26.47h.44v6.15Zm0-2.72a1.67,1.67,0,0,0-.17-.56,1,1,0,0,0-.35-.39,1.14,1.14,0,0,0-.62-.15,1,1,0,0,0-1,.54,1.92,1.92,0,0,0-.16.56,4.58,4.58,0,0,0,0,.64,4.49,4.49,0,0,0,0,.64,1.86,1.86,0,0,0,.16.55,1.07,1.07,0,0,0,.36.4,1.13,1.13,0,0,0,.61.15,1.14,1.14,0,0,0,.62-.15,1,1,0,0,0,.35-.4,1.61,1.61,0,0,0,.17-.55c0-.21,0-.42,0-.64S92,30.11,91.94,29.9Z"/><path class="cls-3" d="M94.29,30.63a1.94,1.94,0,0,0,.34,1.23,1.24,1.24,0,0,0,1,.42,1.48,1.48,0,0,0,.63-.12,1.67,1.67,0,0,0,.52-.38l.33.26a2.69,2.69,0,0,1-.32.27,1.38,1.38,0,0,1-.33.2,1.27,1.27,0,0,1-.39.12,2.13,2.13,0,0,1-.46,0,1.62,1.62,0,0,1-1.32-.54,2.47,2.47,0,0,1-.45-1.59A2.49,2.49,0,0,1,94.29,29a1.44,1.44,0,0,1,1.22-.56,1.51,1.51,0,0,1,1.23.53,2.32,2.32,0,0,1,.44,1.49v.2ZM96.72,30a1.11,1.11,0,0,0,0-.19s0-.1,0-.16a.94.94,0,0,0-.06-.18,1.11,1.11,0,0,0-.42-.51,1.28,1.28,0,0,0-1.31,0,1.11,1.11,0,0,0-.42.51l-.07.18c0,.06,0,.11,0,.16a1.11,1.11,0,0,0,0,.19,2,2,0,0,0,0,.26h2.45C96.73,30.18,96.73,30.1,96.72,30Z"/><path class="cls-4" d="M12.88,36.28a3.86,3.86,0,0,1,0,7.71H10.12V36.28Zm0,6.6a2.74,2.74,0,0,0,0-5.48H11.23v5.48Z"/><path class="cls-4" d="M18.36,42.88h3.58V44h-4.7V36.28h4.69V37.4H18.36v2.17h3.49v1.12H18.36Z"/><path class="cls-4" d="M26.65,38.27a1.48,1.48,0,0,0-1.58-1,1.83,1.83,0,0,0-1.4.58,1,1,0,0,0-.18.72c.05.79.92.89,1.75,1,1.06.13,2.37.41,2.67,1.64a3,3,0,0,1,.05.51c0,1.48-1.48,2.34-2.86,2.34A2.64,2.64,0,0,1,22.32,42v-.21l1.12,0v.12c.08.72.95,1.09,1.67,1.09s1.73-.46,1.73-1.25a.93.93,0,0,0,0-.27c-.13-.58-.92-.68-1.69-.76-1.2-.12-2.62-.38-2.74-2h0a2.12,2.12,0,0,1,.42-1.47,3,3,0,0,1,2.34-1,2.44,2.44,0,0,1,2.62,2Z"/><path class="cls-4" d="M33.14,41.72H30.37c-.29.7-.68,1.63-.92,2.27h-1.2l3.09-7.82h.82L35.26,44H34.07Zm-2.35-1h1.92L31.76,38Z"/><path class="cls-4" d="M37.13,40.08h1.3a1.34,1.34,0,1,0,0-2.68H36.72V44h-1.1V36.27h2.81a2.39,2.39,0,0,1,2.51,2.46,2.32,2.32,0,0,1-2,2.36L41.39,44H39.94L37.13,40.6Z"/><path class="cls-4" d="M43.22,40.08h1.3a1.34,1.34,0,1,0,0-2.68H42.81V44h-1.1V36.27h2.81A2.39,2.39,0,0,1,47,38.73a2.32,2.32,0,0,1-2,2.36L47.47,44H46L43.22,40.6Z"/><path class="cls-4" d="M48.39,37.34a3.91,3.91,0,0,1,2.77-1.17A4,4,0,0,1,54,42.92a3.89,3.89,0,0,1-2.79,1.17,3.83,3.83,0,0,1-2.77-1.17,4,4,0,0,1,0-5.58Zm4.77.8a2.85,2.85,0,0,0-2-.84,2.85,2.85,0,0,0-2.8,2.83,2.83,2.83,0,0,0,.83,2,2.79,2.79,0,0,0,2,.83A2.8,2.8,0,0,0,54,40.13,2.84,2.84,0,0,0,53.16,38.14Z"/><path class="cls-4" d="M57,42.88h3.63V44H55.85V36.28H57Z"/><path class="cls-4" d="M62.23,42.88h3.62V44H61.12V36.28h1.11Z"/><path class="cls-4" d="M66.81,37.34a3.9,3.9,0,0,1,5.57,0,4,4,0,0,1,0,5.58,3.9,3.9,0,0,1-5.57,0,4,4,0,0,1,0-5.58Zm4.78.8a2.85,2.85,0,0,0-2-.84,2.85,2.85,0,0,0-2.8,2.83,2.83,2.83,0,0,0,.83,2,2.79,2.79,0,0,0,2,.83,2.8,2.8,0,0,0,2.81-2.83A2.84,2.84,0,0,0,71.59,38.14Z"/><path class="cls-3" d="M74.68,36.28l2.11,3.39,2.1-3.39h1.33l-2.87,4.57V44H76.23V40.85l-2.86-4.57Z"/><path class="cls-4" d="M83.15,36.27a2.58,2.58,0,0,1,0,5.15h-1.7V44H80.33V36.27Zm0,4a1.46,1.46,0,0,0,0-2.92h-1.7v2.92Z"/><path class="cls-4" d="M89.83,41.72H87.06c-.3.7-.68,1.63-.92,2.27h-1.2L88,36.17h.82L91.94,44H90.75Zm-2.35-1H89.4l-1-2.72Z"/><path class="cls-4" d="M91.9,36.28h5.23l.37.71-4.36,6h4.29v1H92l-.45-.62L96,37.3H91.9Z"/><line class="cls-5" x1="105.05" y1="0.41" x2="105.05" y2="47.23"/><rect class="cls-3" x="102.4" width="5.29" height="0.81"/><rect class="cls-3" x="102.4" y="46.82" width="5.29" height="0.81"/><line class="cls-5" x1="2.65" y1="0.41" x2="2.65" y2="47.23"/><rect class="cls-3" width="5.29" height="0.81"/><rect class="cls-3" y="46.82" width="5.29" height="0.81"/></g></g></svg>